<?xml version="1.0" encoding="utf-8"?>
<COLLADA xmlns="http://www.collada.org/2005/11/COLLADASchema" version="1.4.1" xmlns:xsi="http://www.w3.org/2001/XMLSchema-instance">
  <asset>
    <contributor>
      <author>Blender User</author>
      <authoring_tool>Blender 4.5.5 LTS commit date:2025-11-17, commit time:16:03, hash:836beaaf597a</authoring_tool>
    </contributor>
    <created>2026-01-08T13:41:56</created>
    <modified>2026-01-08T13:41:56</modified>
    <unit name="meter" meter="1"/>
    <up_axis>Z_UP</up_axis>
  </asset>
  <library_effects>
    <effect id="材质-effect">
      <profile_COMMON>
        <newparam sid="texture_jpeg-surface">
          <surface type="2D">
            <init_from>texture_jpeg</init_from>
          </surface>
        </newparam>
        <newparam sid="texture_jpeg-sampler">
          <sampler2D>
            <source>texture_jpeg-surface</source>
          </sampler2D>
        </newparam>
        <technique sid="common">
          <lambert>
            <emission>
              <color sid="emission">0 0 0 1</color>
            </emission>
            <diffuse>
              <texture texture="texture_jpeg-sampler" texcoord="UVMap"/>
            </diffuse>
            <index_of_refraction>
              <float sid="ior">1.5</float>
            </index_of_refraction>
          </lambert>
        </technique>
      </profile_COMMON>
    </effect>
  </library_effects>
  <library_images>
    <image id="texture_jpeg" name="texture_jpeg">
      <init_from>texture.jpeg</init_from>
    </image>
  </library_images>
  <library_materials>
    <material id="材质-material" name="材质">
      <instance_effect url="#材质-effect"/>
    </material>
  </library_materials>
  <library_geometries>
    <geometry id="right_arm_link5-mesh" name="right_arm_link5">
      <mesh>
        <source id="right_arm_link5-mesh-positions">
          <float_array id="right_arm_link5-mesh-positions-array" count="990">0.02250295 0.026784 -0.030761 0.02250295 -0.02806597 -0.03554195 0.02250295 0.028068 -0.03555995 0.02250295 -0.02849996 -0.04049098 0.02250295 0.02849996 -0.04050898 0.02250295 -0.02806895 -0.04543995 0.02250295 0.02806496 -0.04545795 0.02250295 -0.02468597 -0.05474197 0.02250295 -0.02183794 -0.05881297 0.02250295 0.02677798 -0.05025595 0.02250295 -0.01832598 -0.06232696 0.02250295 0.00495696 -0.01243394 0.02250295 8e-6 -0.01199996 0.02250295 -0.004940986 -0.01243096 0.02250295 -0.009739995 -0.01371598 0.02250295 -0.026784 -0.05023896 0.02250295 -0.02677899 -0.03074395 0.02250295 -0.02467799 -0.02624195 0.02250295 -0.02182698 -0.022174 0.02250295 -0.01425796 -0.06517696 0.02250295 -0.009755969 -0.06727796 0.02250295 -0.004957973 -0.06856596 0.02250295 0.02468597 -0.02625799 0.02250295 0.02183794 -0.02218699 0.02250295 0.01832598 -0.018673 0.02250295 -0.01424294 -0.015814 0.02250295 -0.01831299 -0.01866197 0.02250295 -9e-6 -0.069 0.02250295 0.004939973 -0.068569 0.02250295 0.02467697 -0.05475795 0.02250295 0.009738981 -0.06728398 0.02250295 0.02182596 -0.05882596 0.02250295 0.01424199 -0.06518596 0.02250295 0.01831299 -0.06233799 0.02250295 0.01425695 -0.01582294 0.02250295 0.009754955 -0.013722 -0.02849996 0.02849996 -0.04050898 -0.02849996 0.028068 -0.03555995 -0.02849996 0.026784 -0.030761 -0.02849996 0.02468597 -0.02625799 -0.02849996 0.02183794 -0.02218699 -0.02849996 0.01832598 -0.018673 -0.02849996 0.01425695 -0.01582294 -0.02849996 0.009755969 -0.013722 -0.02849996 0.00495696 -0.01243394 -0.02849996 8e-6 -0.01199996 -0.02849996 -0.004940986 -0.01243096 -0.02849996 -0.009739995 -0.01371598 0.02250295 -0.009739995 -0.01371598 -0.02849996 -0.01424294 -0.015814 -0.02849996 -0.01831299 -0.01866197 -0.02849996 -0.02182698 -0.022174 -0.02849996 -0.02467799 -0.02624195 -0.02849996 -0.02677899 -0.03074395 -0.02849996 -0.02806597 -0.03554195 -0.02849996 -0.02849996 -0.04049098 -0.02849996 -0.02806895 -0.04543995 -0.02849996 -0.026784 -0.05023896 -0.02849996 -0.02468597 -0.05474197 -0.02849996 -0.02183794 -0.05881297 -0.02849996 -0.01832598 -0.06232696 -0.02849996 -0.01425796 -0.06517696 -0.02849996 -0.009755969 -0.06727796 0.02250295 -0.009755969 -0.06727796 -0.02849996 -0.004957973 -0.06856596 -0.02849996 -9e-6 -0.069 -0.02849996 0.004939973 -0.068569 -0.02849996 0.009738981 -0.06728398 -0.02849996 0.01424199 -0.06518596 -0.02849996 0.01831299 -0.06233799 -0.02849996 0.02182596 -0.05882596 -0.02849996 0.02467697 -0.05475795 -0.02849996 0.02677798 -0.05025595 -0.02849996 0.02806496 -0.04545795 0.02249997 0.02828395 -0.03954499 0.02249997 0.02804696 -0.04427099 0.02249997 -0.01792496 -0.01829898 0.02249997 0.01711797 -0.01551699 0.02249997 0.01732397 -0.01696497 0.02249997 -0.01711797 -0.01551699 0.02249997 -0.01732397 -0.01696497 0.02249997 0.02702695 -0.04889094 0.02249997 0.02525198 -0.053276 0.02249997 -0.01885396 -0.01939499 0.02249997 0.01711797 -0.006999969 0.02249997 0.01631796 -0.006199955 0.02249997 0.01792496 -0.01829898 0.02249997 0.01885396 -0.01939499 0.02249997 0.02158498 -0.02219796 0.02249997 0.024333 -0.02604997 0.02249997 0.02639997 -0.03030598 0.02249997 0.02772897 -0.03484696 0.02249997 -0.01112395 -0.066522 0.02249997 -0.01530396 -0.064305 0.02249997 -0.02210599 -0.02283096 0.02249997 -0.01711797 -0.006999969 0.02249997 -0.01631796 -0.006199955 0.02249997 0.02276998 -0.05730396 0.02249997 0.01965296 -0.06086295 0.02249997 0.01598596 -0.06385195 0.02249997 0.01662397 -0.006260991 0.02249997 0.01688396 -0.006433963 0.02249997 0.017057 -0.006693959 0.02249997 0.01187199 -0.06618899 0.02249997 0.007425963 -0.06780797 0.02249997 0.002772986 -0.06866395 0.02249997 -10e-7 -0.06879997 0.02249997 -0.001957952 -0.06873196 0.02249997 -0.006633996 -0.06801199 0.02249997 -0.017057 -0.006693959 0.02249997 -0.01688396 -0.006433963 0.02249997 -0.01662397 -0.006260991 0.02249997 -0.01905596 -0.061423 0.02249997 -0.02227497 -0.05795598 0.02249997 -0.024872 -0.05400097 0.02249997 -0.02677398 -0.04966896 0.02249997 -0.02792698 -0.04507994 0.02249997 -0.02829998 -0.04036396 0.02249997 -0.02788197 -0.03565096 0.02249997 -0.02668398 -0.03107398 0.02249997 -0.02474099 -0.02675998 0.02649998 -0.002351999 -0.06870198 0.02649998 -10e-7 -0.06879997 0.02649998 -0.01885396 -0.01939499 0.02649998 0.02665597 -0.03099495 0.02649998 0.02471297 -0.02671098 0.02649998 -0.01732397 -0.01696497 0.02649998 0.022089 -0.02280896 0.02649998 0.01885396 -0.01939499 0.02649998 0.01791495 -0.01828396 0.02649998 0.01732099 -0.01695698 0.02649998 -0.01711797 -0.01551699 0.02649998 0.01711797 -0.01551699 0.02649998 0.02786195 -0.03553998 0.02649998 -0.01792496 -0.01829898 0.02649998 0.02829796 -0.040223 0.02649998 0.02243 -0.05775594 0.02649998 0.02497798 -0.05380195 0.02649998 0.02683699 -0.04948198 0.02649998 0.02795296 -0.04491394 0.02649998 -0.006989955 -0.067923 0.02649998 -0.01631796 -0.006199955 0.02649998 -0.01671797 -0.006306946 0.02649998 -0.01701098 -0.006599962 0.02649998 -0.01926398 -0.06123197 0.02649998 -0.01556396 -0.06413596 0.02649998 -0.01143497 -0.06638699 0.02649998 0.002350986 -0.06870198 0.02649998 0.006988942 -0.067923 0.02649998 0.01143395 -0.06638699 0.02649998 0.01688396 -0.006433963 0.02649998 0.01662397 -0.006260991 0.02649998 0.017057 -0.006693959 0.02649998 0.01631796 -0.006199955 0.02649998 0.01711797 -0.006999969 0.02649998 -0.01711797 -0.006999969 0.02649998 -0.022089 -0.02280795 0.02649998 -0.02471399 -0.02671098 0.02649998 -0.02497899 -0.05380195 0.02649998 -0.02665597 -0.03099399 0.02649998 0.01556396 -0.06413596 0.02649998 0.01926296 -0.06123197 0.02649998 -0.02243095 -0.05775499 0.02649998 -0.02786195 -0.03553998 0.02649998 -0.02829897 -0.040223 0.02649998 -0.02683699 -0.04948198 0.02649998 -0.02795398 -0.04491299 0.02629995 0.01731795 -0.006999969 0.02629995 0.01724195 -0.00661695 0.02629995 0.01702499 -0.006292998 0.02629995 0.01670098 -0.006075978 0.02629995 0.01631796 -0.005999982 0.02629995 0.01731795 -0.01551699 0.02629995 -0.01631796 -0.005999982 0.02269995 0.01631796 -0.005999982 0.02269995 0.01670098 -0.006075978 0.02269995 0.01702499 -0.006292998 0.02269995 0.01724195 -0.00661695 0.02269995 0.01731795 -0.006999969 0.02629995 0.01751399 -0.01690196 0.02629995 0.018085 -0.01817798 0.02629995 0.01898699 -0.01924598 0.02269995 0.01731795 -0.01551699 0.02629995 -0.01681798 -0.006133973 0.02629995 -0.01718395 -0.006499946 0.02629995 -0.01731795 -0.006999969 0.02269995 -0.01631796 -0.005999982 0.02629995 -0.01898699 -0.01924598 0.02629995 -0.02224498 -0.02268296 0.02629995 -0.02488797 -0.02661299 0.02629995 -0.02491599 -0.026663 0.02629995 -0.02684396 -0.030927 0.02629995 -0.02687299 -0.03100699 0.02629995 -0.028059 -0.03550499 0.02629995 -0.02807897 -0.03561699 0.02629995 -0.02849894 -0.04022097 0.02629995 -0.02849996 -0.04036295 0.02629995 -0.02815198 -0.04494398 0.02629995 -0.02812397 -0.04511296 0.02629995 -0.02702695 -0.04954499 0.02629995 -0.02696299 -0.04973399 0.02629995 -0.02515596 -0.05389595 0.02629995 -0.02504795 -0.05409598 0.02629995 -0.02258998 -0.057877 0.02629995 -0.02243298 -0.058079 0.02629995 -0.0194 -0.061378 0.02629995 -0.01919096 -0.061571 0.02629995 -0.01567399 -0.06430298 0.02629995 -0.01541197 -0.06447297 0.02629995 -0.01151597 -0.06656998 0.02629995 -0.01120299 -0.066706 0.02629995 -0.007039964 -0.06811696 0.02629995 -0.006680965 -0.06820595 0.02629995 -0.002368986 -0.068901 0.02629995 -0.001970946 -0.06893199 0.02629995 -10e-7 -0.069 0.02629995 0.002367973 -0.068901 0.02629995 0.002792954 -0.06886297 0.02629995 0.00703895 -0.06811696 0.02629995 0.007478952 -0.06800097 0.02629995 0.01567399 -0.06430298 0.02629995 0.01195597 -0.06637096 0.02629995 0.01151496 -0.06656998 0.02629995 0.01609897 -0.06401801 0.02629995 0.01731795 -0.06313496 0.02629995 0.01939898 -0.06137895 0.02629995 0.01979196 -0.06100696 0.02629995 0.02258896 -0.057877 0.02629995 0.02293097 -0.05742299 0.02629995 0.02515494 -0.05389595 0.02629995 0.02542996 -0.053366 0.02629995 0.02702599 -0.049546 0.02629995 0.02721798 -0.04894995 0.02629995 0.02815097 -0.044945 0.02629995 0.02824598 -0.04429697 0.02629995 0.02849799 -0.04022097 0.02629995 0.02848398 -0.03953897 0.02629995 0.028059 -0.03550499 0.02629995 0.02792495 -0.03480696 0.02629995 0.02684396 -0.030927 0.02629995 0.02658694 -0.03023397 0.02629995 0.02488797 -0.02661395 0.02629995 0.02450495 -0.02594798 0.02629995 0.02224498 -0.02268397 0.02269995 0.01898699 -0.01924598 0.02269995 0.018094 -0.01819199 0.02269995 0.01751595 -0.01690995 0.02269995 0.01731795 -0.01551699 0.02629995 -0.01731795 -0.01551699 0.02269995 -0.01731795 -0.006999969 0.02269995 -0.01724195 -0.00661695 0.02269995 -0.01718395 -0.006499946 0.02269995 -0.01702499 -0.006292998 0.02269995 -0.01681798 -0.006133973 0.02269995 -0.01670098 -0.006075978 0.02629995 -0.018094 -0.01819199 0.02629995 -0.01751595 -0.016909 0.02269995 -0.01898699 -0.01924598 0.02269995 -0.02226299 -0.02270597 0.02269995 0.02173799 -0.02206897 0.02269995 0.02450495 -0.02594798 0.02269995 0.02658694 -0.03023397 0.02269995 0.02792495 -0.03480696 0.02269995 0.02848398 -0.03953897 0.02269995 0.02824598 -0.04429697 0.02269995 0.02721798 -0.04894995 0.02269995 0.02542996 -0.053366 0.02269995 0.02293097 -0.05742299 0.02269995 0.01979196 -0.06100696 0.02269995 0.01731795 -0.06313496 0.02269995 0.01609897 -0.06401801 0.02269995 0.01195597 -0.06637096 0.02269995 0.007478952 -0.06800097 0.02269995 0.002792954 -0.06886297 0.02269995 -10e-7 -0.069 0.02269995 -0.001970946 -0.06893199 0.02269995 -0.006680965 -0.06820595 0.02629995 -0.007039964 -0.06811696 0.02269995 -0.01120299 -0.066706 0.02269995 -0.01541197 -0.06447297 0.02269995 -0.01919096 -0.061571 0.02269995 -0.02243298 -0.058079 0.02269995 -0.02504795 -0.05409598 0.02269995 -0.02696299 -0.04973399 0.02629995 -0.02702695 -0.04954499 0.02269995 -0.02812397 -0.04511296 0.02269995 -0.02849996 -0.04036295 0.02269995 -0.02807897 -0.03561699 0.02269995 -0.02687299 -0.03100699 0.02269995 -0.02491599 -0.026663 0.02269995 0.01898699 -0.01924598 0.02249997 0.01885396 -0.01939499 0.02269995 0.018094 -0.01819199 0.02249997 0.01792496 -0.01829898 0.02269995 0.01751595 -0.01690995 0.02249997 0.01711797 -0.01551699 0.02269995 -0.01731795 -0.01551699 0.02269995 -0.01898699 -0.01924598 0.02629995 -0.01898699 -0.01924598 0.02269995 -0.018094 -0.01819199 0.02269995 -0.018085 -0.01817697 0.02269995 -0.01751595 -0.016909 0.02269995 -0.01751399 -0.01690095 0.02269995 0.01898699 -0.01924598 0.02269995 0.02173799 -0.02206897 0.02269995 0.02450495 -0.02594798 0.02269995 0.02658694 -0.03023397 0.02269995 0.02792495 -0.03480696 0.02269995 0.02848398 -0.03953897 0.02269995 0.02824598 -0.04429697 0.02269995 0.02721798 -0.04894995 0.02269995 0.02542996 -0.053366 0.02269995 0.02293097 -0.05742299 0.02269995 0.01979196 -0.06100696 0.02269995 0.01609897 -0.06401801 0.02269995 0.01195597 -0.06637096 0.02269995 0.007478952 -0.06800097 0.02269995 0.002792954 -0.06886297 0.02269995 -0.001970946 -0.06893199 0.02269995 -0.006680965 -0.06820595 0.02249997 -0.006633996 -0.06801199 0.02269995 -0.01120299 -0.066706 0.02269995 -0.01541197 -0.06447297 0.02269995 -0.01919096 -0.061571 0.02249997 -0.02677398 -0.04966896 0.02249997 -0.02829998 -0.04036396 0.02269995 -0.02807897 -0.03561699 0.02269995 -0.02491599 -0.026663 0.02249997 -0.02474099 -0.02675998 0.02269995 -0.02226299 -0.02270597</float_array>
          <technique_common>
            <accessor source="#right_arm_link5-mesh-positions-array" count="330" stride="3">
              <param name="X" type="float"/>
              <param name="Y" type="float"/>
              <param name="Z" type="float"/>
            </accessor>
          </technique_common>
        </source>
        <source id="right_arm_link5-mesh-normals">
          <float_array id="right_arm_link5-mesh-normals-array" count="2856">1 0 0 1 0 0 1 0 0 1 0 0 1 0 0 1 0 0 1 0 0 1 0 0 1 0 0 1 0 0 1 0 0 1 -4.71505e-7 0 1 0 0 1 -1.43179e-7 0 1 -8.22201e-7 0 1 0 0 1 0 0 1 7.87823e-7 0 1 4.43734e-6 0 1 2.68995e-7 0 1 0 0 1 0 0 1 0 0 1 0 0 1 0 0 1 1.32876e-7 0 1 1.94562e-6 0 1 -1.4223e-6 0 1 -1.29684e-6 0 1 5.576e-7 0 1 3.4456e-7 0 1 6.81707e-7 0 1 -5.04488e-7 0 1 7.61134e-7 0 1 1.6162e-7 0 1 -1.07637e-6 0 1 5.54825e-7 0 1 0 0 1 0 0 0 0.9962118 0.08696025 0 0.9962119 0.08695942 0 0.9962119 0.08695948 0 0.9962118 0.08696031 0 0.9660209 0.2584642 0 0.9064452 0.4223234 0 0.9064453 0.4223234 0 0.8193926 0.5732327 0 0.8193926 0.5732327 0 0.7073079 0.7069056 0 0.7073077 0.7069059 0 0.7073077 0.7069058 0 0.7073079 0.7069056 0 0.5736923 0.8190709 0 0.5736922 0.8190711 0 0.5736922 0.819071 7.79164e-6 0.4229013 0.9061759 0 0.4229736 0.9061421 5.13238e-7 0.4229688 0.9061443 8.30479e-6 0.4228965 0.9061781 3.12324e-7 0.2592628 0.9658069 5.05303e-6 0.2592154 0.9658195 4.74077e-6 0.2592185 0.9658188 0 0.2592658 0.965806 0 0.08735918 0.9961769 0 0.08735918 0.996177 0 -0.08709424 0.9962001 0 -0.08709424 0.9962001 0 -0.08709424 0.9962001 0 -0.08709424 0.9962001 0 -0.2586522 0.9659705 0 -0.2586523 0.9659705 0 -0.4223233 0.9064453 0 -0.4223235 0.9064452 0 -0.5733271 0.8193266 0 -0.5733271 0.8193267 0 -0.7069058 0.7073078 0 -0.7069056 0.707308 0 -0.7069056 0.7073079 0 -0.7069058 0.7073077 0 -0.8191025 0.5736474 0 -0.8189103 0.5739216 0 -0.8191028 0.5736469 0 -0.8189098 0.5739222 0 -0.9061781 0.4228964 0 -0.906178 0.4228964 0 -0.9061781 0.4228965 0 -0.9061781 0.4228964 0 -0.9658563 0.2590786 0 -0.9658565 0.2590779 0 -0.9658564 0.2590779 0 -0.9658563 0.2590787 0 -0.9961768 0.08735972 0 -0.996177 0.08735883 0 -0.9961769 0.08735889 0 -0.9961768 0.08735978 0 -0.9962002 -0.087094 0 -0.9962002 -0.087094 0 -0.9962002 -0.087094 -1.60841e-7 -0.9962002 -0.087094 0 -0.9660574 -0.2583279 5.74483e-7 -0.9660943 -0.2581897 0 -0.9660572 -0.2583286 0 -0.9660574 -0.2583278 0 -0.9064452 -0.4223234 0 -0.9064453 -0.4223234 0 -0.8193926 -0.5732329 0 -0.7073083 -0.7069053 0 -0.7073081 -0.7069054 0 -0.5737866 -0.819005 0 -0.5737866 -0.8190049 0 -0.4228958 -0.9061783 0 -0.422896 -0.9061783 0 -0.2592667 -0.9658058 0 -0.2592667 -0.9658058 0 -0.08735847 -0.996177 0 -0.08735847 -0.996177 0 -0.08735847 -0.996177 0 0.08709442 -0.9962001 0 0.08709442 -0.9962001 0 0.08709442 -0.9962001 0 0.08709442 -0.9962001 0 0.258651 -0.9659708 2.09084e-7 0.258327 -0.9660576 0 0.2586511 -0.9659708 0 0.258188 -0.9660947 0 0.4223237 -0.9064451 0 0.4223237 -0.9064452 0 0.5732329 -0.8193926 0 0.5732333 -0.8193923 0 0.5732332 -0.8193923 0 0.7070057 -0.7072079 0 0.707006 -0.7072076 0 0.707006 -0.7072076 0 0.7070057 -0.7072079 0 0.8189108 -0.573921 0 0.8189103 -0.5739216 0 0.8189103 -0.5739216 0 0.8189107 -0.573921 0 0.9061782 -0.4228963 0 0.9061778 -0.422897 0 0.9061779 -0.422897 0 0.9061782 -0.4228963 0 0.9658565 -0.259078 0 0.9658563 -0.2590788 0 0.9658563 -0.2590788 0 0.9658564 -0.2590779 0 0.9961594 -0.08755856 0 0.9961594 -0.08755946 0 0.9961594 -0.0875594 0 0.9961594 -0.0875585 -1 0 0 -1 0 0 -1 0 0 -1 0 0 -1 0 0 -1 0 0 -1 1.50906e-7 0 -1 0 0 -1 0 0 -1 0 0 -1 0 0 -1 0 0 -1 0 0 -1 0 0 -1 0 0 -1 0 0 -1 -1.5631e-7 0 -1 0 0 -1 0 0 -1 0 0 -1 0 0 -1 -6.48573e-7 0 -1 0 0 -1 3.0561e-7 0 -1 -3.95918e-7 0 -1 0 0 -1 0 0 -1 0 0 -1 0 0 -1 -5.46506e-7 0 -1 0 0 -1 -6.82042e-7 0 -1 0 0 -1 0 0 -1 0 0 -1 0 0 -1 2.87231e-7 0 -1 -1.00653e-6 0 -1 1.56246e-6 0 -1 3.88418e-7 0 -1 0 0 -1 0 0 -1 0 0 -1 0 0 -1 -1.42525e-7 0 -1 0 0 -1 -7.35497e-7 0 -1 -5.4922e-7 0 -1 0 0 -1 1.08642e-6 0 -1 0 0 -1 1.68631e-7 0 -1 7.33911e-7 0 -1 -7.95017e-6 0 -1 3.06403e-7 0 -1 0 0 -1 3.43085e-7 0 -1 0 0 -1 4.34422e-7 0 -1 -9.47858e-7 0 -1 5.89919e-7 0 -1 0 0 -1 1.58398e-5 0 -1 2.44443e-6 0 -1 0 0 -1 -1.964e-7 0 -1 -3.94874e-7 0 -1 1.56359e-7 0 -1 9.40631e-7 0 -1 -3.72676e-7 0 -1 -1.31355e-6 0 -1 -3.89779e-6 0 1 -1.3068e-6 0 1 4.45664e-7 0 1 2.37812e-7 0 1 0 0 1 -1.92878e-7 0 1 -1.35078e-7 0 1 0 0 1 0 0 1 0 0 1 0 0 1 -1.80104e-7 0 1 -2.53739e-7 0 1 2.33394e-7 0 1 -2.27906e-7 0 1 -1.56146e-7 0 1 0 0 1 2.59602e-7 0 1 1.03783e-6 0 1 1.035e-6 0 1 -2.32875e-7 0 1 2.58094e-7 0 1 6.28349e-7 0 1 -4.59348e-7 0 1 2.23013e-7 0 1 3.97775e-6 0 1 3.05561e-7 0 1 -4.43766e-7 0 1 -3.4176e-6 0 1 3.49429e-6 0 1 1.07172e-6 0 1 -1.58067e-7 0 1 -3.01013e-7 0 1 -8.19074e-7 0 1 1.91889e-7 0 1 0 0 1 -3.40341e-7 0 1 1.40428e-6 0 1 -1.27908e-6 0 0.7004678 0.6999874 0.1391498 0.7001991 0.700201 0.139427 0.7002009 0.7002233 0.1393054 0.7003474 0.7000706 0.139337 0.7001816 0.5936826 0.3965939 0.7002153 0.5936321 0.3966103 0.7001863 0.5936741 0.3965984 0.7001911 0.5936669 0.3966006 0.6999886 0.3967022 0.5938378 0.7001789 0.3966675 0.5936368 0.7002514 0.3963176 0.5937849 0.7002249 0.396611 0.5936201 0.7002922 0.1392606 0.7001409 0.7001888 0.1393224 0.7002321 0.7002101 0.139303 0.7002146 0.7001862 0.1395788 0.7001836 0.7071024 0.7071112 0 0.7071025 0.7071111 0 0.7071084 0.7071052 0 0.7071085 0.7071051 0 0.707106 0 0.7071076 0.7071091 0 0.7071045 0 0.1949676 0.9808097 0 0.1949684 0.9808095 0 0.1951094 0.9807815 0 0.1949676 0.9808097 0 0.5555976 0.8314514 0 0.5556792 0.8313969 0 0.5555993 0.8314502 0 0.5555576 0.8314782 0 0.831454 0.5555937 0 0.8314759 0.555561 0 0.8314762 0.5555605 0 0.8314011 0.5556729 0 0.9807829 0.1951026 0 0.9808745 0.1946417 0 0.9807811 0.1951112 0 0.9808111 0.1949609 0.7035896 0.7035965 0.09956842 0.7035579 0.7036556 0.09937423 0.7036117 0.7035983 0.09939879 0.7036022 0.7036105 0.09937942 0.7036226 0.6485742 0.2902872 0.7036527 0.6485475 0.2902743 0.7036083 0.6485867 0.2902944 0.703609 0.6485859 0.2902942 0.7036992 0.54278 0.4584729 0.7036777 0.5427927 0.4584909 0.7036122 0.5428352 0.458541 0.7035722 0.5428558 0.4585779 0 1 0 0.6946176 -0.1861218 0.694885 0.694742 -0.1861916 0.694742 0.6947807 -0.1862371 0.694691 0.6947425 -0.1862124 0.6947358 0.6944795 -0.5087739 0.5087705 0.6948254 -0.5085357 0.5085363 0.6948232 -0.5085369 0.5085381 0.694477 -0.5087758 0.5087718 0.6945057 -0.6949894 0.1861495 0.6947243 -0.6947537 0.1862133 0.6946312 -0.6948983 0.1860219 0.6947903 -0.6947824 0.1858598 0 0 1 -0.7004687 0.1391507 0.6999862 -0.7002495 0.1389503 0.7002453 -0.7002024 0.139305 0.700222 -0.7002213 0.1393047 0.7002031 -0.7001853 0.3965922 0.5936794 -0.7002788 0.3966339 0.5935412 -0.7002393 0.3966197 0.5935974 -0.7001823 0.3965975 0.5936795 -0.7002263 0.5936176 0.3966124 -0.7002387 0.5936145 0.3965951 -0.7002126 0.5935531 0.396733 -0.7002267 0.5936201 0.3966081 -0.7002937 0.7001396 0.13926 -0.7002543 0.7001776 0.139267 -0.7002108 0.700214 0.1393029 -0.7002316 0.7002316 0.1391095 0.705793 -0.5142274 0.4872643 0.7059801 -0.5141333 0.4870924 0.7056979 -0.5142215 0.4874082 0.7057108 -0.5142127 0.4873987 0.7059302 -0.587704 0.3953057 0.7060391 -0.5876002 0.3952655 0.7059527 -0.5876832 0.3952966 0.7059436 -0.5876935 0.3952977 0.7070792 -0.6177824 0.3440699 0.7070791 -0.6177825 0.34407 0.7070791 -0.6177824 0.34407 0.7139492 -0.6377071 0.2891475 0.7080611 -0.6433372 0.2911474 0.7115387 -0.6400216 0.2899742 0.705848 -0.6454256 0.2918977 0.7070968 -0.6663967 0.2364943 0.7070964 -0.6663972 0.2364942 0.7070966 -0.666397 0.2364942 0.7181679 -0.6726045 0.1784325 0.7060695 -0.6847395 0.1805481 0.7071119 -0.6964071 0.1225154 0.7071119 -0.6964071 0.1225154 0.7071118 -0.6964071 0.1225155 0.7217399 -0.6891715 0.06429803 0.7217399 -0.6891715 0.06429803 0.7217399 -0.6891715 0.06429803 0.7059649 -0.7053181 0.06434309 0.7071394 -0.7070567 0.004981458 0.7253308 -0.6865456 -0.05050247 0.7060427 -0.7061312 -0.05369067 0.7060426 -0.7061311 -0.05369079 0.7060426 -0.7061311 -0.05369073 0.7071231 -0.6981127 -0.1123192 0.7071232 -0.6981126 -0.1123192 0.7071233 -0.6981125 -0.1123192 0.7288777 -0.6650531 -0.162609 0.7288777 -0.6650532 -0.1626089 0.7061143 -0.6873368 -0.1702082 0.7061142 -0.6873368 -0.1702082 0.7074103 -0.6694601 -0.2267025 0.7326703 -0.6252111 -0.2688966 0.7059983 -0.6496037 -0.2821019 0.7059983 -0.6496037 -0.2821019 0.7059983 -0.6496037 -0.2821019 0.7071321 -0.6227798 -0.3348277 0.707132 -0.6227799 -0.3348279 0.707132 -0.6227798 -0.3348278 0.7357674 -0.5692285 -0.3669132 0.7059857 -0.5937171 -0.3861144 0.7059857 -0.593717 -0.3861144 0.7059857 -0.5937171 -0.3861144 0.707081 -0.5585144 -0.4337028 0.707081 -0.5585145 -0.4337029 0.739194 -0.4978781 -0.4535523 0.739194 -0.4978781 -0.4535523 0.705983 -0.5214005 -0.4793012 0.705983 -0.5214005 -0.479301 0.705983 -0.5214005 -0.4793011 0.7071161 -0.4787055 -0.5204112 0.7071162 -0.4787055 -0.5204111 0.7071163 -0.4787055 -0.5204111 0.7423593 -0.4136633 -0.5270535 0.7059875 -0.4344655 -0.5593043 0.7070831 -0.3857007 -0.5926791 0.7070832 -0.3857007 -0.5926791 0.7453037 -0.3191429 -0.5853804 0.7453037 -0.319143 -0.5853803 0.7453037 -0.319143 -0.5853804 0.7060382 -0.3356044 -0.6236022 0.7060382 -0.3356044 -0.6236023 0.7073229 -0.2817159 -0.6483291 0.748497 -0.2165846 -0.6267724 0.7060309 -0.2273042 -0.670711 0.7060309 -0.2273041 -0.6707111 0.7060309 -0.2273041 -0.670711 0.7071117 -0.170203 -0.6863119 0.7071117 -0.170203 -0.686312 0.7071117 -0.170203 -0.6863119 0.7512917 -0.1092942 -0.6508576 0.7512918 -0.1092942 -0.6508576 0.7512918 -0.1092942 -0.6508575 0.7060101 -0.112708 -0.6991758 0.7060101 -0.112708 -0.6991758 0.7060101 -0.112708 -0.6991758 0.7070479 -0.05388242 -0.70511 0.7070479 -0.05388242 -0.70511 0.7070478 -0.05388242 -0.70511 0.7300292 -0.02840363 -0.6828255 0.7300292 -0.02840358 -0.6828255 0.7300292 -0.02840358 -0.6828255 0.7069036 -0.0244013 -0.7068888 0.7067827 0.02945291 -0.7068174 0.7067465 0.02946078 -0.7068532 0.7066812 0.02943921 -0.7069194 0.7067132 0.02942806 -0.7068879 0.707121 0.06403404 -0.7041872 0.707121 0.06403398 -0.7041872 0.7071209 0.06403404 -0.7041872 0.7568358 0.1081954 -0.6445878 0.7568358 0.1081953 -0.6445879 0.7568358 0.1081953 -0.6445879 0.7060226 0.1224988 -0.6975143 0.7060226 0.1224987 -0.6975143 0.7060226 0.1224988 -0.6975143 0.7071177 0.1801001 -0.6837753 0.7071177 0.1801 -0.6837753 0.7071177 0.1801001 -0.6837753 0.759539 0.2124872 -0.6147763 0.7595388 0.2124872 -0.6147763 0.759539 0.2124872 -0.6147763 0.7060743 0.3442146 -0.6188501 0.7622749 0.3097797 -0.5683078 0.7622748 0.3097797 -0.5683078 0.7622748 0.3097797 -0.5683078 0.7070733 0.2912162 -0.6443917 0.7070733 0.2912162 -0.6443916 0.7070733 0.2912162 -0.6443917 0.7063023 0.2365667 -0.6672131 0.7070366 0.3938651 -0.5873411 0.736765 0.3964923 -0.5476964 0.736765 0.3964923 -0.5476964 0.8283851 0.3459036 -0.4406006 0.7067411 0.4562754 -0.5406753 0.7067411 0.4562754 -0.5406752 0.7067411 0.4562755 -0.5406753 0.7072073 0.4860768 -0.5134074 0.7072073 0.4860768 -0.5134075 0.7072073 0.4860768 -0.5134074 0.7671396 0.4741963 -0.4320125 0.7671396 0.4741963 -0.4320126 0.7671396 0.4741962 -0.4320126 0.7061219 0.5279121 -0.4719116 0.7061219 0.5279121 -0.4719117 0.7071484 0.5646994 -0.4255065 0.7071484 0.5646994 -0.4255065 0.7692006 0.5371417 -0.3461345 0.7061881 0.5989217 -0.3776125 0.7061881 0.5989218 -0.3776124 0.7071396 0.627558 -0.3257677 0.7071396 0.6275581 -0.3257676 0.7071396 0.6275581 -0.3257676 0.7717134 0.5842126 -0.2513048 0.7061173 0.6533783 -0.2729378 0.7061174 0.6533784 -0.2729378 0.7061173 0.6533783 -0.2729378 0.7071182 0.6729441 -0.217095 0.7071182 0.6729441 -0.217095 0.7739635 0.6151102 -0.1503992 0.7739635 0.6151102 -0.1503993 0.7739636 0.6151102 -0.1503993 0.7062001 0.689559 -0.1605919 0.7062002 0.6895591 -0.1605919 0.7062002 0.689559 -0.1605919 0.7070951 0.6996795 -0.1023 0.7070951 0.6996795 -0.1023 0.7070951 0.6996795 -0.1023 0.7761839 0.6288117 -0.04620009 0.7761839 0.6288118 -0.04620015 0.7761839 0.6288117 -0.04620027 0.7062099 0.7066533 -0.04368841 0.7070724 0.7069731 0.01541972 0.7070724 0.7069731 0.01541972 0.7070723 0.7069732 0.01541972 0.7782657 0.6252225 0.05830454 0.7782658 0.6252225 0.0583046 0.7782658 0.6252225 0.05830466 0.7063665 0.7039505 0.07416331 0.7071011 0.6945537 0.1326779 0.7071011 0.6945537 0.1326779 0.707101 0.6945537 0.1326779 0.7802852 0.6045052 0.1604012 0.7802852 0.6045052 0.1604013 0.7802852 0.6045052 0.1604012 0.7059639 0.682263 0.1900852 0.7069547 0.6631269 0.2459225 0.7823211 0.5672935 0.2572 0.7823212 0.5672934 0.2572 0.7823212 0.5672935 0.2572 0.7061289 0.641052 0.3007233 0.7061289 0.641052 0.3007233 0.7071157 0.6128134 0.3527706 0.7071157 0.6128135 0.3527706 0.7842856 0.5147703 0.3462769 0.7842857 0.5147703 0.3462768 0.7062987 0.5820496 0.4029398 0.7062987 0.5820496 0.4029398 0.7060362 0.5141028 0.4870433 0.7057165 0.5142655 0.487335 0.7058627 0.5141955 0.4871971 0.7058492 0.5142048 0.4872068 -5.11334e-4 0.7631094 0.6462693 0 0.7639833 0.6452363 -1.13001e-4 0.7637548 0.6455065 -6.07019e-4 0.7629735 0.6464295 6.80514e-4 0.9116291 0.4110134 -3.99985e-4 0.9127755 0.4084613 5.63072e-5 0.9901141 0.1402646 2.37555e-4 0.9900488 0.1407243 1.37315e-4 0.990136 0.1401095 0 0.9901813 0.1397895 -0.7071024 0.7071112 0 -0.7071085 0.7071051 0 0.7071024 -0.7071111 0 0.7071025 -0.707111 0 0.7071083 -0.7071053 0 0.7071084 -0.7071052 0 0 -0.9808111 0.1949609 0 -0.9808111 0.1949609 0 -0.9808111 0.1949609 0.007148444 -0.9658895 0.2588563 0 -0.8968835 0.442267 0 -0.8968835 0.442267 0 -0.8968835 0.442267 0 -0.7930513 0.6091549 0.009427309 -0.7070764 0.7070744 0 -0.6088876 0.7932567 0 -0.6088875 0.7932566 0 -0.6088875 0.7932566 0 -0.4423018 0.8968663 0 -0.4423018 0.8968663 0 -0.4423018 0.8968663 0.007148802 -0.2588584 0.9658889 0 -0.1952037 0.9807627 0 -0.1952037 0.9807627 0 -0.1952037 0.9807627 -0.7071091 0 0.7071045 -0.707106 0 0.7071076 0.7036412 -0.5420513 0.459423 0.7036496 -0.5420435 0.4594194 0.7036682 -0.5420252 0.4594125 0.7037344 -0.5419632 0.4593842 0.7034274 -0.6478746 0.2923158 0.7036183 -0.6478669 0.2918732 0.703634 -0.6478543 0.2918631 0.7036364 -0.6478525 0.2918615 0.7034943 -0.7036184 0.1000844 0.7035027 -0.70361 0.1000854 0.7035507 -0.7035611 0.1000913 0.703558 -0.7035536 0.1000922 0 -0.7261517 0.6875345 0 0.7161808 0.6979148 0.01528203 0.725768 0.6877698 -0.01853364 0.8220137 0.5691662 0 0.8141024 0.5807214 0 0.86664 0.498934 -1.60853e-7 0.86664 0.498934 0 0.86664 0.4989341 -0.01485925 0.8993901 0.4368944 0 0.9052546 0.4248697 0 0.9376006 0.3477142 -0.01445788 0.959662 0.2807843 0 0.9633116 0.268386 0 0.9822652 0.187497 0 0.9822652 0.187497 0 0.9822652 0.187497 -0.01421779 0.9929943 0.1173042 0 0.994496 0.104775 0 0.9997631 0.0217669 0 0.9997631 0.0217669 0 0.9997631 0.0217669 -0.01367479 0.9986616 -0.04988151 -0.01367485 0.9986616 -0.04988157 -0.01367485 0.9986615 -0.04988157 0 0.9980647 -0.06218564 0 0.9980647 -0.06218564 0 0.9980647 -0.06218564 0 0.9894716 -0.1447274 0 0.9894716 -0.1447274 0 0.9894716 -0.1447274 -0.01306313 0.9763697 -0.2157118 0 0.9739218 -0.2268838 0 0.9517256 -0.3069503 0 0.9517256 -0.3069503 0 0.9517256 -0.3069504 -0.01269507 0.9268307 -0.3752651 0 0.9227047 -0.3855075 0 0.8874754 -0.460855 0 0.8874754 -0.460855 0 0.8874756 -0.4608551 -0.01217091 0.851372 -0.5244215 0 0.8458759 -0.53338 0 0.7987299 -0.6016898 -0.01162111 0.7522139 -0.6588165 0 0.7456587 -0.6663281 0 0.6874378 -0.7262434 -0.007151961 0.6520854 -0.7581118 -0.007126986 0.6517044 -0.7584397 -6.54662e-4 0.6454061 -0.7638394 0 0.6449038 -0.7642637 0 0.586634 -0.8098521 0 0.5866328 -0.8098531 0 0.5866336 -0.8098524 0 0.5866324 -0.8098534 0 0.5573494 -0.8302781 0 0.5573494 -0.8302781 0 0.5573494 -0.830278 -0.0105347 0.4938271 -0.8694964 -8.14717e-4 0.4867615 -0.8735346 -0.009960472 0.4935227 -0.869676 0 0.486081 -0.8739138 0 0.4116114 -0.9113595 0 0.4116114 -0.9113595 0 0.4116114 -0.9113595 -0.01003772 0.3420971 -0.9396111 -8.36568e-4 0.334784 -0.9422945 -0.009585201 0.3416582 -0.9397754 0 0.3341764 -0.9425107 0 0.2549222 -0.9669617 -0.00957942 0.1809073 -0.9834536 -0.001020252 0.1734232 -0.984847 -0.009403109 0.1799827 -0.9836249 0 0.1730433 -0.9849143 1.26289e-7 0.09050136 -0.9958963 0 0.09050136 -0.9958963 0 0.09050136 -0.9958963 -0.004762649 0.04897469 -0.9987887 -0.004793822 0.04832786 -0.9988201 -6.9322e-4 0.04231053 -0.9991044 0 0.0417515 -0.9991281 0 -0.03497701 -0.9993882 0 -0.03449791 -0.9994048 0 -0.03449791 -0.9994048 0 -0.03483325 -0.9993932 0 -0.07615858 -0.9970958 0 -0.07615858 -0.9970958 0 -0.07615858 -0.9970958 -0.008660316 -0.1522651 -0.9883018 -9.03101e-4 -0.1589401 -0.9872878 -0.008246839 -0.1531113 -0.9881746 0 -0.1591255 -0.9872584 0 -0.2406188 -0.9706198 -0.007934331 -0.3148319 -0.9491143 -5.84618e-4 -0.3203849 -0.9472873 -0.007320165 -0.3150812 -0.9490365 0 -0.3210003 -0.9470792 0 -0.3985214 -0.9171591 -0.007373809 -0.4686465 -0.883355 -2.22203e-4 -0.4729945 -0.8810654 -0.006432831 -0.4685047 -0.8834376 0 -0.4739505 -0.8805516 0 -0.545396 -0.8381786 0 -0.545396 -0.8381786 0 -0.545396 -0.8381786 -0.00687325 -0.6090484 -0.7931033 -8.00643e-4 -0.6132866 -0.7898601 -0.006710708 -0.6097528 -0.7925633 0 -0.6134593 -0.7897263 0 -0.6770478 -0.7359392 0 -0.6770478 -0.7359392 0 -0.6770478 -0.7359392 -0.006068766 -0.7328404 -0.6803736 -6.11937e-4 -0.7360153 -0.6769647 -0.005860328 -0.7331574 -0.6800338 0 -0.7361615 -0.6768059 0 -0.7899098 -0.613223 0 -0.7899098 -0.613223 0 -0.7899098 -0.613223 -0.005661845 -0.835924 -0.5488162 -2.47577e-4 -0.8380117 -0.5456525 -0.004949092 -0.8358963 -0.5488653 0 -0.8384077 -0.5450436 0 -0.8807474 -0.4735863 0 -0.8807474 -0.4735863 0 -0.8807474 -0.4735863 -0.004749834 -0.915749 -0.4017232 -4.56816e-4 -0.9170884 -0.3986839 -0.00462234 -0.9157282 -0.4017719 0 -0.9172768 -0.3982505 0 -0.9471684 -0.3207369 -0.004449248 -0.9698483 -0.2436689 -1.67384e-5 -0.9704753 -0.2412006 -0.003629565 -0.9697985 -0.2438809 0 -0.9707065 -0.2402685 3.57748e-7 -0.9872967 -0.1588877 0 -0.9872967 -0.1588877 -4.27288e-7 -0.9872967 -0.1588876 -0.003742992 -0.9968856 -0.07877308 -3.27666e-4 -0.9970854 -0.07629275 -0.003287494 -0.996878 -0.07889044 0 -0.9971271 -0.0757479 0 -0.9999751 0.007059395 -0.003208696 -0.9960836 0.0883587 -3.71481e-4 -0.9958717 0.09077191 -0.003108382 -0.9960515 0.088723 0 -0.9958648 0.09084796 0 -0.9848595 0.1733546 0 -0.9848595 0.1733545 0 -0.9848595 0.1733546 -0.002498984 -0.96744 0.2530885 -4.06809e-4 -0.9669113 0.2551125 -0.002566874 -0.9673365 0.2534831 0 -0.9669521 0.2549585 -4.24467e-7 -0.942389 0.3345192 -3.18318e-7 -0.942389 0.3345192 1.64364e-7 -0.942389 0.3345192 -0.001782894 -0.9117474 0.4107475 -3.94228e-4 -0.9111036 0.4121775 -0.001946151 -0.9116165 0.4110373 0 -0.9111844 0.411999 -2.1585e-7 -0.8737148 0.4864387 0 -0.8737148 0.4864387 0 -0.8737147 0.4864387 -0.001273512 -0.8305932 0.5568781 4.63489e-4 -0.8298777 0.5579454 -0.001098871 -0.8305615 0.5569261 5.82936e-4 -0.8298018 0.5580581 -7.6563e-4 -0.7257528 0.6879552 -0.7036412 0.5420513 0.459423 -0.7036496 0.5420435 0.4594194 -0.7036682 0.5420252 0.4594125 -0.7037344 0.5419632 0.4593842 -0.7036164 0.6477875 0.2920535 -0.7035238 0.6478816 0.2920684 -0.7035382 0.6479341 0.291917 -0.7035589 0.647916 0.2919071 -0.7034807 0.7036428 0.1000089 -0.7032837 0.703833 0.1000558 -0.7035214 0.7035909 0.1000874 -0.703558 0.7035536 0.1000922 0 -1 0 -0.7002398 -0.7001883 0.1392863 -0.7001991 -0.700201 0.139427 -0.7003062 -0.7001234 0.1392788 -0.7002223 -0.7002021 0.1393049 -0.7063459 -0.6348738 0.313067 -0.7063458 -0.6348738 0.313067 -0.7063458 -0.6348738 0.313067 -0.7293889 -0.5687739 0.3801159 -0.729389 -0.5687739 0.3801159 -0.7293889 -0.568774 0.3801159 -0.7040883 -0.5633779 0.4322789 -0.7040884 -0.5633777 0.4322791 -0.7040883 -0.5633777 0.4322791 -0.7040885 -0.4322788 0.5633776 -0.7040885 -0.4322788 0.5633777 -0.7040885 -0.4322787 0.5633777 -0.7293889 -0.3801132 0.5687759 -0.729389 -0.3801131 0.5687758 -0.7293889 -0.3801131 0.5687758 -0.7063127 -0.3131136 0.6348877 -0.7063127 -0.3131136 0.6348877 -0.7063126 -0.3131136 0.6348877 -0.7001916 -0.1393131 0.7002312 -0.7001866 -0.1393241 0.7002341 -0.7004489 -0.1392402 0.6999883 -0.7001862 -0.1395788 0.7001836 0 -0.7629738 0.6464295 0 -0.7626645 0.6467944 2.98692e-7 -0.762664 0.6467949 0 -0.7626647 0.6467942 0 -0.8457334 0.5336058 -1.75476e-6 -0.8457331 0.5336064 -6.15839e-7 -0.8457327 0.5336068 -5.75144e-4 -0.9123518 0.4094067 -5.54404e-4 -0.9122225 0.4096952 -2.10303e-4 -0.9118272 0.4105743 0 -0.9117491 0.4107476 0 -0.9607292 0.2774879 1.35668e-6 -0.9607291 0.2774884 -3.41029e-7 -0.9607289 0.277489 -3.52221e-4 -0.9901528 0.1399903 -3.82156e-4 -0.9900773 0.1405236 -1.33749e-4 -0.990149 0.1400184 0 -0.9901874 0.1397462 -0.7063837 0.5069382 0.494 -0.7062271 0.5070371 0.4941222 -0.7061905 0.5070679 0.494143 -0.7064127 0.5069153 0.4939817 -0.7058368 0.5767307 0.4113102 -0.7058368 0.5767307 0.4113102 -0.7057946 0.5767043 0.4114198 -0.7058384 0.6371734 0.3095195 -0.7058996 0.6371321 0.3094649 -0.7059249 0.6797614 0.1989837 -0.7059249 0.6797614 0.1989837 -0.7059249 0.6797614 0.1989836 -0.7059449 0.6797531 0.1989412 -0.7059339 0.7033869 0.08309227 -0.7059077 0.7034124 0.08309882 -0.7057906 0.7075352 -0.0354045 -0.7057906 0.7075352 -0.03540456 -0.7058802 0.7074463 -0.03539818 -0.7058802 0.7074462 -0.03539842 -0.7058802 0.7074462 -0.03539836 -0.7059212 0.691632 -0.1527103 -0.7059222 0.6916354 -0.1526905 -0.7059222 0.6916354 -0.1526906 -0.7057411 0.6918097 -0.152738 -0.7056597 0.6567596 -0.2659162 -0.7058317 0.656619 -0.2658069 -0.7058317 0.656619 -0.2658069 -0.7058317 0.6566189 -0.2658069 -0.7059227 0.6030585 -0.3714748 -0.7059227 0.6030586 -0.3714747 -0.7059227 0.6030585 -0.3714748 -0.7062128 0.6027556 -0.3714153 -0.7059223 0.5327543 -0.4667405 -0.7059223 0.5327543 -0.4667405 -0.7059039 0.5327681 -0.4667525 -0.7059039 0.5327681 -0.4667525 -0.706438 0.4615669 -0.5365645 -0.706438 0.4615669 -0.5365644 -0.8189346 0.3626134 -0.4448121 -0.8189346 0.3626133 -0.4448121 -0.707022 0.4147179 -0.5728255 -0.707022 0.4147177 -0.5728256 -0.707022 0.4147177 -0.5728257 -0.7058764 0.3498893 -0.6158865 -0.7058764 0.3498893 -0.6158865 -0.7058764 0.3498894 -0.6158864 -0.7058643 0.349898 -0.6158953 -0.7058643 0.349898 -0.6158953 -0.7058643 0.349898 -0.6158953 -0.705882 0.2423854 -0.6655674 -0.7058821 0.242387 -0.6655668 -0.7058821 0.2423871 -0.6655667 -0.7061966 0.2422639 -0.6652779 -0.7060441 0.1281197 -0.696482 -0.7059388 0.1281472 -0.6965836 -0.7066498 0.03464823 -0.7067147 -0.7066504 0.03464853 -0.706714 -0.7066596 0.034653 -0.7067047 -0.7066602 0.0346533 -0.706704 -0.7068835 -0.0245639 -0.7069034 -0.7069584 -0.02454632 -0.7068291 -0.7068769 -0.02450239 -0.7069121 -0.7068485 -0.02450692 -0.7069403 -0.7059252 -0.1079029 -0.700019 -0.7059252 -0.107903 -0.700019 -0.7059252 -0.1079028 -0.700019 -0.7057739 -0.1079035 -0.7001714 -0.7057739 -0.1079035 -0.7001714 -0.7057739 -0.1079035 -0.7001714 -0.7058454 -0.2230147 -0.6723442 -0.7058454 -0.2230147 -0.6723442 -0.7058454 -0.2230147 -0.6723442 -0.7059244 -0.2229971 -0.672267 -0.7059244 -0.2229972 -0.6722671 -0.7059244 -0.2229971 -0.6722671 -0.7059887 -0.3318527 -0.6256627 -0.7059887 -0.3318527 -0.6256627 -0.7059887 -0.3318527 -0.6256627 -0.7057159 -0.3319643 -0.6259112 -0.705716 -0.3319643 -0.6259111 -0.705716 -0.3319643 -0.6259111 -0.7058005 -0.4315424 -0.561798 -0.7058005 -0.4315423 -0.561798 -0.7058005 -0.4315423 -0.561798 -0.7059224 -0.4314861 -0.561688 -0.7059224 -0.4314861 -0.561688 -0.7059224 -0.4314861 -0.561688 -0.7059146 -0.5190442 -0.481952 -0.7059144 -0.5190485 -0.4819477 -0.7059144 -0.5190484 -0.4819478 -0.7061842 -0.5188648 -0.4817503 -0.7059493 -0.5920405 -0.3887463 -0.7059028 -0.5920736 -0.3887806 -0.7058249 -0.5921417 -0.3888182 -0.7058023 -0.5921596 -0.3888318 -0.7059376 -0.6485284 -0.2847155 -0.7056623 -0.6487699 -0.2848481 -0.7059113 -0.6869247 -0.1726953 -0.7059113 -0.6869247 -0.1726953 -0.7059113 -0.6869247 -0.1726953 -0.705853 -0.6869854 -0.1726924 -0.705853 -0.6869854 -0.1726924 -0.705853 -0.6869854 -0.1726924 -0.7057926 -0.7062154 -0.05582714 -0.7057926 -0.7062155 -0.05582714 -0.705861 -0.7061453 -0.0558502 -0.7058733 -0.7055677 0.06258791 -0.7057492 -0.7056917 0.06258898 -0.7056656 -0.6854777 0.1793219 -0.7058553 -0.6852893 0.1792958 -0.7058553 -0.6852893 0.1792958 -0.7058553 -0.6852893 0.1792958 -0.7059158 -0.6458015 0.290901 -0.7059158 -0.6458014 0.290901 -0.7059159 -0.6458015 0.290901 -0.7060375 -0.6457049 0.2908201 -0.7059915 -0.5882451 0.3943904 -0.7059516 -0.5882435 0.3944643 -0.7059516 -0.5882434 0.3944643 -0.7059516 -0.5882433 0.3944644 -0.7058679 -0.514387 0.4869872 -0.705868 -0.5143869 0.4869874 -0.7058679 -0.514387 0.4869874 -0.7058352 -0.5144165 0.4870036 -0.7058352 -0.5144164 0.4870037 -0.7058352 -0.5144163 0.4870036 -0.7071024 -0.7071111 0 -0.7071025 -0.707111 0 -0.7071083 -0.7071053 0 -0.7071084 -0.7071052 0 -0.7036713 -0.5420974 0.4593226 -0.7036585 -0.5420275 0.4594244 -0.7035891 -0.5420818 0.4594668 -0.7037469 -0.5420534 0.4592586 -0.7070753 -0.5980945 0.3772633 -0.7070757 -0.5980936 0.3772639 -0.7070767 -0.5980924 0.3772637 -0.6992998 -0.6517045 0.2937024 -0.702754 -0.6490609 0.291302 -0.7004498 -0.650842 0.2928737 -0.7035879 -0.7035879 0.09964048 -0.7020796 -0.7050647 0.09984022 -0.7030789 -0.704157 0.09921246 -0.7015763 -0.7055118 0.1002191 -0.7071293 -0.6792331 0.1964958 -0.7071304 -0.6792339 0.196489 -0.7071292 -0.6792342 0.1964923 -0.7035345 -0.648463 0.2907488</float_array>
          <technique_common>
            <accessor source="#right_arm_link5-mesh-normals-array" count="952" stride="3">
              <param name="X" type="float"/>
              <param name="Y" type="float"/>
              <param name="Z" type="float"/>
            </accessor>
          </technique_common>
        </source>
        <source id="right_arm_link5-mesh-map-0">
          <float_array id="right_arm_link5-mesh-map-0-array" count="3432">0.459843 0.496682 0.471019 0.503135 0.459095 0.497574 0.459095 0.497574 0.471019 0.503135 0.470621 0.504229 0.459095 0.497574 0.470621 0.504229 0.458513 0.498583 0.458513 0.498583 0.470621 0.504229 0.470039 0.505237 0.458513 0.498583 0.470039 0.505237 0.458114 0.499677 0.468398 0.506878 0.46739 0.50746 0.457912 0.500823 0.457912 0.500823 0.46739 0.50746 0.466296 0.507858 0.466296 0.494953 0.46739 0.495351 0.471019 0.503135 0.471019 0.503135 0.46739 0.495351 0.468398 0.495934 0.471019 0.503135 0.468398 0.495934 0.46929 0.496682 0.458114 0.499677 0.470039 0.505237 0.457912 0.500823 0.457912 0.500823 0.470039 0.505237 0.46929 0.506129 0.457912 0.500823 0.46929 0.506129 0.468398 0.506878 0.471221 0.501988 0.471019 0.503135 0.471221 0.500823 0.471221 0.500823 0.471019 0.503135 0.471019 0.499677 0.466296 0.507858 0.465149 0.50806 0.457912 0.500823 0.457912 0.500823 0.465149 0.50806 0.463984 0.50806 0.457912 0.500823 0.463984 0.50806 0.462838 0.507858 0.459843 0.496682 0.460735 0.495934 0.471019 0.503135 0.471019 0.503135 0.460735 0.495934 0.461744 0.495351 0.471019 0.503135 0.461744 0.495351 0.462838 0.494953 0.46929 0.496682 0.470039 0.497574 0.471019 0.503135 0.471019 0.503135 0.470039 0.497574 0.470621 0.498583 0.471019 0.503135 0.470621 0.498583 0.471019 0.499677 0.462838 0.507858 0.461744 0.50746 0.457912 0.500823 0.457912 0.500823 0.461744 0.50746 0.460735 0.506878 0.457912 0.500823 0.460735 0.506878 0.457912 0.501988 0.457912 0.501988 0.460735 0.506878 0.459843 0.506129 0.457912 0.501988 0.459843 0.506129 0.458114 0.503135 0.458114 0.503135 0.459843 0.506129 0.459095 0.505237 0.458114 0.503135 0.459095 0.505237 0.458513 0.504229 0.462838 0.494953 0.463984 0.494751 0.471019 0.503135 0.471019 0.503135 0.463984 0.494751 0.465149 0.494751 0.471019 0.503135 0.465149 0.494751 0.466296 0.494953 0.490865 0.51867 0.490865 0.506716 0.491981 0.506715 0.490865 0.51867 0.491981 0.506715 0.491981 0.518669 0.491981 0.518669 0.491981 0.506715 0.493023 0.506714 0.491981 0.518669 0.493023 0.506714 0.493023 0.518668 0.477874 0.508061 0.477874 0.520015 0.476779 0.520015 0.477874 0.508061 0.476779 0.520015 0.476779 0.50806 0.476779 0.50806 0.476779 0.520015 0.475632 0.520015 0.476779 0.50806 0.475632 0.520015 0.475632 0.50806 0.475632 0.50806 0.475632 0.520015 0.474468 0.520015 0.475632 0.50806 0.474468 0.520015 0.474468 0.50806 0.474468 0.50806 0.474468 0.520015 0.473321 0.520015 0.474468 0.50806 0.473321 0.520015 0.473321 0.50806 0.473321 0.50806 0.473321 0.520015 0.472228 0.520015 0.473321 0.50806 0.472228 0.520015 0.472228 0.508061 0.472228 0.508061 0.472228 0.520015 0.471221 0.520015 0.472228 0.508061 0.471221 0.520015 0.471221 0.508061 0.484578 0.49194 0.484578 0.479986 0.485517 0.479985 0.484578 0.49194 0.485517 0.479985 0.485517 0.49194 0.485517 0.49194 0.485517 0.479985 0.486562 0.479985 0.485517 0.49194 0.486562 0.479985 0.486562 0.491939 0.486562 0.491939 0.486562 0.479985 0.48768 0.479985 0.486562 0.491939 0.48768 0.479985 0.48768 0.491939 0.48768 0.491939 0.48768 0.479985 0.488837 0.479985 0.48768 0.491939 0.488837 0.479985 0.488837 0.491939 0.488837 0.491939 0.488837 0.479985 0.489999 0.479985 0.488837 0.491939 0.489999 0.479985 0.489999 0.491939 0.489999 0.491939 0.489999 0.479985 0.49113 0.479985 0.489999 0.491939 0.49113 0.479985 0.49113 0.491939 0.49113 0.491939 0.49113 0.479985 0.492196 0.479985 0.49113 0.491939 0.492196 0.479985 0.492196 0.491939 0.492196 0.491939 0.492196 0.479985 0.493163 0.479985 0.492196 0.491939 0.493163 0.479985 0.493163 0.49194 0.493163 0.49194 0.493163 0.479985 0.494004 0.479986 0.493163 0.49194 0.494004 0.479986 0.494004 0.49194 0.494004 0.49194 0.494004 0.479986 0.494692 0.479986 0.494004 0.49194 0.494692 0.479986 0.494692 0.491941 0.484531 0.506705 0.484531 0.494751 0.485104 0.494752 0.484531 0.506705 0.485104 0.494752 0.485104 0.506707 0.485104 0.506707 0.485104 0.494752 0.485844 0.494754 0.485104 0.506707 0.485844 0.494754 0.485844 0.506708 0.485844 0.506708 0.485844 0.494754 0.48673 0.494755 0.485844 0.506708 0.48673 0.494755 0.48673 0.506709 0.48673 0.506709 0.48673 0.494755 0.487733 0.494755 0.48673 0.506709 0.487733 0.494755 0.487733 0.50671 0.487733 0.50671 0.487733 0.494755 0.488824 0.494756 0.487733 0.50671 0.488824 0.494756 0.488824 0.50671 0.488824 0.50671 0.488824 0.494756 0.489969 0.494756 0.488824 0.50671 0.489969 0.494756 0.489969 0.506711 0.489969 0.506711 0.489969 0.494756 0.491133 0.494756 0.489969 0.506711 0.491133 0.494756 0.491133 0.506711 0.491133 0.506711 0.491133 0.494756 0.492281 0.494756 0.491133 0.506711 0.492281 0.494756 0.492281 0.50671 0.492281 0.50671 0.492281 0.494756 0.493379 0.494756 0.492281 0.50671 0.493379 0.494756 0.493379 0.50671 0.493379 0.50671 0.493379 0.494756 0.494393 0.494755 0.493379 0.50671 0.494393 0.494755 0.494393 0.506709 0.494393 0.506709 0.494393 0.494755 0.495291 0.494754 0.494393 0.506709 0.495291 0.494754 0.495291 0.506708 0.495291 0.506708 0.495291 0.494754 0.496047 0.494753 0.495291 0.506708 0.496047 0.494753 0.496047 0.506707 0.484531 0.518665 0.484531 0.506711 0.485375 0.506713 0.484531 0.518665 0.485375 0.506713 0.485375 0.518667 0.485375 0.518667 0.485375 0.506713 0.486346 0.506714 0.485375 0.518667 0.486346 0.506714 0.486346 0.518668 0.486346 0.518668 0.486346 0.506714 0.487413 0.506715 0.486346 0.518668 0.487413 0.506715 0.487413 0.51867 0.487413 0.51867 0.487413 0.506715 0.488545 0.506716 0.487413 0.51867 0.488545 0.506716 0.488545 0.51867 0.488545 0.51867 0.488545 0.506716 0.489708 0.506716 0.488545 0.51867 0.489708 0.506716 0.489708 0.51867 0.489708 0.51867 0.489708 0.506716 0.490865 0.506716 0.489708 0.51867 0.490865 0.506716 0.490865 0.51867 0.484531 0.500823 0.484531 0.501988 0.471424 0.499677 0.471424 0.499677 0.484531 0.501988 0.484328 0.503135 0.471424 0.499677 0.484328 0.503135 0.471221 0.500823 0.472404 0.497574 0.473152 0.496682 0.481707 0.495934 0.472404 0.497574 0.481707 0.495934 0.471822 0.498583 0.471822 0.498583 0.481707 0.495934 0.471424 0.499677 0.471424 0.499677 0.481707 0.495934 0.482599 0.496682 0.471424 0.499677 0.482599 0.496682 0.483348 0.497574 0.483348 0.497574 0.48393 0.498583 0.471424 0.499677 0.471424 0.499677 0.48393 0.498583 0.484328 0.499677 0.471424 0.499677 0.484328 0.499677 0.484531 0.500823 0.471221 0.500823 0.484328 0.503135 0.471221 0.501988 0.471221 0.501988 0.484328 0.503135 0.48393 0.504229 0.471221 0.501988 0.48393 0.504229 0.483348 0.505237 0.483348 0.505237 0.482599 0.506129 0.471221 0.501988 0.471221 0.501988 0.482599 0.506129 0.481707 0.506878 0.471221 0.501988 0.481707 0.506878 0.480699 0.50746 0.477294 0.50806 0.476147 0.507858 0.478458 0.50806 0.478458 0.50806 0.476147 0.507858 0.475053 0.50746 0.478458 0.50806 0.475053 0.50746 0.474044 0.506878 0.474044 0.506878 0.473152 0.506129 0.478458 0.50806 0.478458 0.50806 0.473152 0.506129 0.472404 0.505237 0.478458 0.50806 0.472404 0.505237 0.471822 0.504229 0.480699 0.50746 0.479605 0.507858 0.471221 0.501988 0.471221 0.501988 0.479605 0.507858 0.478458 0.50806 0.471221 0.501988 0.478458 0.50806 0.471424 0.503135 0.471424 0.503135 0.478458 0.50806 0.471822 0.504229 0.479605 0.494953 0.475053 0.495351 0.478458 0.494751 0.478458 0.494751 0.475053 0.495351 0.476147 0.494953 0.478458 0.494751 0.476147 0.494953 0.477294 0.494751 0.473152 0.496682 0.474044 0.495934 0.481707 0.495934 0.481707 0.495934 0.474044 0.495934 0.475053 0.495351 0.481707 0.495934 0.475053 0.495351 0.480699 0.495352 0.480699 0.495352 0.475053 0.495351 0.479605 0.494953 0.484531 0.487847 0.484475 0.488955 0.4737 0.482867 0.481914 0.482215 0.481962 0.482555 0.473889 0.482215 0.473889 0.482215 0.481962 0.482555 0.473841 0.482555 0.484475 0.488955 0.484236 0.490038 0.4737 0.482867 0.4737 0.482867 0.484236 0.490038 0.48382 0.491066 0.4737 0.482867 0.48382 0.491066 0.473482 0.483124 0.481914 0.480219 0.481914 0.482215 0.481726 0.480031 0.481962 0.482555 0.482103 0.482867 0.473841 0.482555 0.473841 0.482555 0.482103 0.482867 0.48232 0.483124 0.473841 0.482555 0.48232 0.483124 0.482961 0.483781 0.482961 0.483781 0.483605 0.484684 0.473841 0.482555 0.473841 0.482555 0.483605 0.484684 0.484089 0.485682 0.473841 0.482555 0.484089 0.485682 0.4737 0.482867 0.4737 0.482867 0.484089 0.485682 0.484401 0.486746 0.4737 0.482867 0.484401 0.486746 0.484531 0.487847 0.475294 0.49417 0.474314 0.493651 0.47272 0.48393 0.481914 0.482215 0.473889 0.482215 0.481726 0.480031 0.481726 0.480031 0.473889 0.482215 0.473889 0.480219 0.481726 0.480031 0.473889 0.480219 0.474077 0.480031 0.48382 0.491066 0.483238 0.49201 0.473482 0.483124 0.473482 0.483124 0.483238 0.49201 0.482508 0.492844 0.473482 0.483124 0.482508 0.492844 0.481648 0.493545 0.481798 0.480046 0.481859 0.480086 0.481726 0.480031 0.481726 0.480031 0.481859 0.480086 0.481899 0.480147 0.481726 0.480031 0.481899 0.480147 0.481914 0.480219 0.481648 0.493545 0.480684 0.494092 0.473482 0.483124 0.473482 0.483124 0.480684 0.494092 0.479642 0.494472 0.473482 0.483124 0.479642 0.494472 0.478551 0.494672 0.478551 0.494672 0.477901 0.494704 0.473482 0.483124 0.473482 0.483124 0.477901 0.494704 0.477443 0.494688 0.473482 0.483124 0.477443 0.494688 0.47272 0.48393 0.47272 0.48393 0.477443 0.494688 0.476346 0.494519 0.47272 0.48393 0.476346 0.494519 0.475294 0.49417 0.473903 0.480147 0.473944 0.480086 0.473889 0.480219 0.473889 0.480219 0.473944 0.480086 0.474005 0.480046 0.473889 0.480219 0.474005 0.480046 0.474077 0.480031 0.474314 0.493651 0.473435 0.492975 0.47272 0.48393 0.47272 0.48393 0.473435 0.492975 0.47268 0.492162 0.47272 0.48393 0.47268 0.492162 0.472072 0.491235 0.472072 0.491235 0.471626 0.49022 0.47272 0.48393 0.47272 0.48393 0.471626 0.49022 0.471356 0.489145 0.47272 0.48393 0.471356 0.489145 0.471268 0.488039 0.471268 0.488039 0.471366 0.486934 0.47272 0.48393 0.47272 0.48393 0.471366 0.486934 0.471647 0.485862 0.47272 0.48393 0.471647 0.485862 0.472102 0.484851 0.465093 0.494681 0.464541 0.494704 0.46896 0.483124 0.458294 0.485843 0.458749 0.484839 0.468602 0.482555 0.468602 0.482555 0.458749 0.484839 0.459364 0.483924 0.468602 0.482555 0.459364 0.483924 0.460122 0.483124 0.460122 0.483124 0.460342 0.482864 0.468602 0.482555 0.468602 0.482555 0.460342 0.482864 0.460481 0.482553 0.468602 0.482555 0.460481 0.482553 0.468554 0.482215 0.468554 0.482215 0.460481 0.482553 0.460529 0.482215 0.458294 0.485843 0.468602 0.482555 0.458011 0.486908 0.458011 0.486908 0.468602 0.482555 0.468743 0.482867 0.458011 0.486908 0.468743 0.482867 0.457909 0.488006 0.459284 0.492115 0.458687 0.491189 0.46896 0.483124 0.46896 0.483124 0.458687 0.491189 0.458251 0.490176 0.46896 0.483124 0.458251 0.490176 0.468743 0.482867 0.468743 0.482867 0.458251 0.490176 0.457989 0.489105 0.468743 0.482867 0.457989 0.489105 0.457909 0.488006 0.465093 0.494681 0.46896 0.483124 0.46618 0.494499 0.468366 0.480031 0.46846 0.480057 0.468528 0.480125 0.469057 0.49293 0.468189 0.493611 0.46896 0.483124 0.46896 0.483124 0.468189 0.493611 0.467222 0.494139 0.46896 0.483124 0.467222 0.494139 0.46618 0.494499 0.464541 0.494704 0.46399 0.494681 0.46896 0.483124 0.46896 0.483124 0.46399 0.494681 0.462903 0.494499 0.46896 0.483124 0.462903 0.494499 0.461861 0.494139 0.460584 0.480086 0.460645 0.480046 0.460543 0.480147 0.460543 0.480147 0.460645 0.480046 0.460717 0.480031 0.460543 0.480147 0.460717 0.480031 0.460529 0.480219 0.468528 0.480125 0.468554 0.480219 0.468366 0.480031 0.468366 0.480031 0.468554 0.480219 0.468554 0.482215 0.468366 0.480031 0.468554 0.482215 0.460717 0.480031 0.460717 0.480031 0.468554 0.482215 0.460529 0.482215 0.460717 0.480031 0.460529 0.482215 0.460529 0.480219 0.469719 0.483924 0.470334 0.484839 0.470396 0.491189 0.470396 0.491189 0.470334 0.484839 0.470789 0.485843 0.461861 0.494139 0.460893 0.493611 0.46896 0.483124 0.46896 0.483124 0.460893 0.493611 0.460026 0.49293 0.46896 0.483124 0.460026 0.49293 0.459284 0.492115 0.469719 0.483924 0.470396 0.491189 0.46896 0.483124 0.46896 0.483124 0.470396 0.491189 0.469799 0.492115 0.46896 0.483124 0.469799 0.492115 0.469057 0.49293 0.470789 0.485843 0.471072 0.486908 0.470396 0.491189 0.470396 0.491189 0.471072 0.486908 0.471174 0.488006 0.470396 0.491189 0.471174 0.488006 0.470832 0.490176 0.470832 0.490176 0.471174 0.488006 0.471093 0.489105 0.460529 0.480219 0.460482 0.480219 0.4605 0.480129 0.460529 0.480219 0.4605 0.480129 0.460543 0.480147 0.460543 0.480147 0.4605 0.480129 0.460551 0.480053 0.460543 0.480147 0.460551 0.480053 0.460584 0.480086 0.460584 0.480086 0.460551 0.480053 0.460627 0.480002 0.460584 0.480086 0.460627 0.480002 0.460645 0.480046 0.460645 0.480046 0.460627 0.480002 0.460717 0.479985 0.460645 0.480046 0.460717 0.479985 0.460717 0.480031 0.460482 0.480219 0.460529 0.480219 0.460482 0.482215 0.460482 0.482215 0.460529 0.480219 0.460529 0.482215 0.468366 0.479985 0.468366 0.480031 0.460717 0.479985 0.460717 0.479985 0.468366 0.480031 0.460717 0.480031 0.485421 0.493628 0.485421 0.492785 0.485497 0.492785 0.485421 0.493628 0.485497 0.492785 0.485497 0.493628 0.485497 0.493628 0.485497 0.492785 0.485587 0.492785 0.485497 0.493628 0.485587 0.492785 0.485587 0.493628 0.485587 0.493628 0.485587 0.492785 0.485677 0.492785 0.485587 0.493628 0.485677 0.492785 0.485677 0.493628 0.484578 0.491941 0.485421 0.491941 0.485421 0.492026 0.484578 0.491941 0.485421 0.492026 0.484578 0.492025 0.460482 0.482215 0.460529 0.482215 0.460436 0.48254 0.460436 0.48254 0.460529 0.482215 0.460481 0.482553 0.460436 0.48254 0.460481 0.482553 0.460302 0.482839 0.460302 0.482839 0.460481 0.482553 0.460342 0.482864 0.4596 0.508367 0.459647 0.508357 0.4596 0.508693 0.4596 0.508693 0.459647 0.508357 0.459647 0.508696 0.485421 0.493982 0.484578 0.493981 0.485421 0.492026 0.485421 0.492026 0.484578 0.493981 0.484578 0.492025 0.468366 0.480031 0.468366 0.479985 0.468483 0.480016 0.468366 0.480031 0.468483 0.480016 0.46846 0.480057 0.493023 0.513372 0.49307 0.513371 0.49307 0.513488 0.493023 0.513372 0.49307 0.513488 0.493023 0.513466 0.468528 0.480125 0.468569 0.480102 0.4686 0.480219 0.468528 0.480125 0.4686 0.480219 0.468554 0.480219 0.49307 0.513254 0.493068 0.506711 0.493914 0.513254 0.493914 0.513254 0.493068 0.506711 0.493912 0.506711 0.481726 0.480031 0.481726 0.479985 0.481816 0.480002 0.481726 0.480031 0.481816 0.480002 0.481798 0.480046 0.485515 0.493675 0.485497 0.493628 0.485587 0.493628 0.485515 0.493675 0.485587 0.493628 0.485587 0.493675 0.485587 0.493675 0.485587 0.493628 0.485677 0.493628 0.485587 0.493675 0.485677 0.493628 0.485659 0.493675 0.481899 0.480147 0.481943 0.480129 0.48196 0.480219 0.481899 0.480147 0.48196 0.480219 0.481914 0.480219 0.46896 0.483124 0.468992 0.483089 0.469755 0.483895 0.46896 0.483124 0.469755 0.483895 0.469719 0.483924 0.469719 0.483924 0.469755 0.483895 0.470375 0.484816 0.469719 0.483924 0.470375 0.484816 0.470334 0.484839 0.470334 0.484839 0.470375 0.484816 0.470381 0.484828 0.470334 0.484839 0.470381 0.484828 0.470789 0.485843 0.470381 0.484828 0.470833 0.485827 0.470789 0.485843 0.470789 0.485843 0.470833 0.485827 0.47084 0.485846 0.470789 0.485843 0.47084 0.485846 0.471072 0.486908 0.47084 0.485846 0.471118 0.4869 0.471072 0.486908 0.471072 0.486908 0.471118 0.4869 0.471123 0.486926 0.471072 0.486908 0.471123 0.486926 0.471174 0.488006 0.471123 0.486926 0.471221 0.488006 0.471174 0.488006 0.471174 0.488006 0.471221 0.488006 0.471221 0.488039 0.471174 0.488006 0.471221 0.488039 0.471093 0.489105 0.471221 0.488039 0.47114 0.489113 0.471093 0.489105 0.471093 0.489105 0.47114 0.489113 0.471133 0.489152 0.471093 0.489105 0.471133 0.489152 0.470832 0.490176 0.471133 0.489152 0.470876 0.490191 0.470832 0.490176 0.470832 0.490176 0.470876 0.490191 0.470861 0.490235 0.470832 0.490176 0.470861 0.490235 0.470396 0.491189 0.470861 0.490235 0.470437 0.491211 0.470396 0.491189 0.470396 0.491189 0.470437 0.491211 0.470412 0.491258 0.470396 0.491189 0.470412 0.491258 0.469799 0.492115 0.470412 0.491258 0.469836 0.492144 0.469799 0.492115 0.469799 0.492115 0.469836 0.492144 0.469799 0.492191 0.469799 0.492115 0.469799 0.492191 0.469057 0.49293 0.469799 0.492191 0.469088 0.492965 0.469057 0.49293 0.469057 0.49293 0.469088 0.492965 0.469039 0.49301 0.469057 0.49293 0.469039 0.49301 0.468189 0.493611 0.469039 0.49301 0.468215 0.49365 0.468189 0.493611 0.468189 0.493611 0.468215 0.49365 0.468154 0.49369 0.468189 0.493611 0.468154 0.49369 0.467222 0.494139 0.468154 0.49369 0.467241 0.494181 0.467222 0.494139 0.467222 0.494139 0.467241 0.494181 0.467167 0.494213 0.467222 0.494139 0.467167 0.494213 0.46618 0.494499 0.467167 0.494213 0.466191 0.494544 0.46618 0.494499 0.46618 0.494499 0.466191 0.494544 0.466107 0.494565 0.46618 0.494499 0.466107 0.494565 0.465093 0.494681 0.466107 0.494565 0.465096 0.494728 0.465093 0.494681 0.465093 0.494681 0.465096 0.494728 0.465003 0.494735 0.465093 0.494681 0.465003 0.494735 0.464541 0.494704 0.464541 0.494704 0.465003 0.494735 0.464541 0.494751 0.464541 0.494704 0.464541 0.494751 0.46399 0.494681 0.464541 0.494751 0.463986 0.494728 0.46399 0.494681 0.46399 0.494681 0.463986 0.494728 0.463887 0.494719 0.46399 0.494681 0.463887 0.494719 0.462903 0.494499 0.463887 0.494719 0.462892 0.494544 0.462903 0.494499 0.462903 0.494499 0.462892 0.494544 0.462788 0.494517 0.462903 0.494499 0.462788 0.494517 0.461861 0.494139 0.460868 0.49365 0.460893 0.493611 0.461739 0.494135 0.461739 0.494135 0.460893 0.493611 0.461861 0.494139 0.461739 0.494135 0.461861 0.494139 0.461842 0.494182 0.461842 0.494182 0.461861 0.494139 0.462788 0.494517 0.460868 0.49365 0.460768 0.493583 0.460893 0.493611 0.460893 0.493611 0.460768 0.493583 0.460482 0.493376 0.460893 0.493611 0.460482 0.493376 0.460026 0.49293 0.460482 0.493376 0.459994 0.492965 0.460026 0.49293 0.460026 0.49293 0.459994 0.492965 0.459902 0.492878 0.460026 0.49293 0.459902 0.492878 0.459284 0.492115 0.459902 0.492878 0.459247 0.492144 0.459284 0.492115 0.459284 0.492115 0.459247 0.492144 0.459166 0.492038 0.459284 0.492115 0.459166 0.492038 0.458687 0.491189 0.459166 0.492038 0.458645 0.491211 0.458687 0.491189 0.458687 0.491189 0.458645 0.491211 0.458581 0.491087 0.458687 0.491189 0.458581 0.491087 0.458251 0.490176 0.458581 0.491087 0.458207 0.490191 0.458251 0.490176 0.458251 0.490176 0.458207 0.490191 0.458162 0.490052 0.458251 0.490176 0.458162 0.490052 0.457989 0.489105 0.458162 0.490052 0.457943 0.489113 0.457989 0.489105 0.457989 0.489105 0.457943 0.489113 0.457921 0.488961 0.457989 0.489105 0.457921 0.488961 0.457909 0.488006 0.457921 0.488961 0.457862 0.488006 0.457909 0.488006 0.457909 0.488006 0.457862 0.488006 0.457865 0.487846 0.457909 0.488006 0.457865 0.487846 0.458011 0.486908 0.457865 0.487846 0.457965 0.4869 0.458011 0.486908 0.458011 0.486908 0.457965 0.4869 0.457996 0.486737 0.458011 0.486908 0.457996 0.486737 0.458294 0.485843 0.457996 0.486737 0.458249 0.485827 0.458294 0.485843 0.458294 0.485843 0.458249 0.485827 0.45831 0.485665 0.458294 0.485843 0.45831 0.485665 0.458749 0.484839 0.45831 0.485665 0.458708 0.484816 0.458749 0.484839 0.458749 0.484839 0.458708 0.484816 0.458798 0.48466 0.458749 0.484839 0.458798 0.48466 0.459364 0.483924 0.458798 0.48466 0.459327 0.483895 0.459364 0.483924 0.459647 0.509798 0.4596 0.509803 0.4596 0.508693 0.459647 0.509798 0.4596 0.508693 0.459647 0.508696 0.4596 0.508367 0.4596 0.508693 0.458756 0.508694 0.458756 0.508694 0.458756 0.508371 0.4596 0.508367 0.4596 0.508367 0.458756 0.508371 0.458756 0.508062 0.4596 0.508367 0.458756 0.508062 0.4596 0.50806 0.485731 0.491941 0.485732 0.492785 0.485421 0.492785 0.485731 0.491941 0.485421 0.492785 0.485422 0.491941 0.481914 0.480219 0.48196 0.480219 0.481914 0.482215 0.481914 0.482215 0.48196 0.480219 0.48196 0.482215 0.4686 0.482215 0.468554 0.482215 0.4686 0.480219 0.4686 0.480219 0.468554 0.482215 0.468554 0.480219 0.493914 0.513576 0.49307 0.513576 0.493914 0.513514 0.493914 0.513514 0.49307 0.513576 0.49307 0.513488 0.493914 0.513514 0.49307 0.513488 0.493914 0.513488 0.493914 0.513488 0.49307 0.513488 0.493914 0.513431 0.493914 0.513431 0.49307 0.513488 0.49307 0.513371 0.493914 0.513431 0.49307 0.513371 0.493914 0.513371 0.493914 0.513371 0.49307 0.513371 0.493914 0.51334 0.493914 0.51334 0.49307 0.513371 0.49307 0.513254 0.493914 0.51334 0.49307 0.513254 0.493914 0.513254 0.474077 0.480031 0.474077 0.479985 0.481726 0.480031 0.481726 0.480031 0.474077 0.479985 0.481726 0.479985 0.468992 0.483089 0.46896 0.483124 0.468782 0.482842 0.468782 0.482842 0.46896 0.483124 0.468743 0.482867 0.468782 0.482842 0.468743 0.482867 0.468647 0.482542 0.468647 0.482542 0.468743 0.482867 0.468602 0.482555 0.468647 0.482542 0.468602 0.482555 0.4686 0.482215 0.4686 0.482215 0.468602 0.482555 0.468554 0.482215 0.457912 0.508061 0.458756 0.50806 0.458756 0.509137 0.458756 0.509618 0.458756 0.508694 0.4596 0.508693 0.4596 0.508693 0.4596 0.509803 0.458756 0.509618 0.458756 0.509618 0.4596 0.509803 0.4596 0.510719 0.458756 0.509618 0.4596 0.510719 0.458756 0.510719 0.458756 0.510719 0.4596 0.510719 0.4596 0.510893 0.458756 0.510719 0.4596 0.510893 0.458756 0.511776 0.4596 0.510893 0.4596 0.511776 0.458756 0.511776 0.458756 0.511776 0.4596 0.511776 0.4596 0.511934 0.493961 0.506711 0.494805 0.506858 0.493963 0.507698 0.494805 0.506858 0.494806 0.507698 0.493963 0.507698 0.493963 0.507698 0.494806 0.507698 0.494807 0.507852 0.493963 0.507698 0.494807 0.507852 0.493964 0.508759 0.494807 0.507852 0.494808 0.508759 0.493964 0.508759 0.493964 0.508759 0.494808 0.508759 0.494808 0.508915 0.493964 0.508759 0.494808 0.508915 0.493965 0.509863 0.494808 0.508915 0.494809 0.509863 0.493965 0.509863 0.493965 0.509863 0.494809 0.509863 0.494809 0.510016 0.493965 0.509863 0.494809 0.510016 0.493965 0.51098 0.494809 0.510016 0.494809 0.51098 0.493965 0.51098 0.493965 0.51098 0.494809 0.51098 0.494809 0.511125 0.493965 0.51098 0.494809 0.511125 0.493965 0.512078 0.494809 0.511125 0.494809 0.512078 0.493965 0.512078 0.493965 0.512078 0.494809 0.512078 0.494809 0.512212 0.493965 0.512078 0.494809 0.512212 0.493965 0.513126 0.494809 0.512212 0.494809 0.513126 0.493965 0.513126 0.493965 0.513126 0.494809 0.513126 0.494809 0.513246 0.493965 0.513126 0.494809 0.513246 0.493964 0.514096 0.494809 0.513246 0.494808 0.514096 0.493964 0.514096 0.493964 0.514096 0.494808 0.514096 0.494808 0.5142 0.493964 0.514096 0.494808 0.5142 0.493963 0.514701 0.493963 0.514701 0.494808 0.5142 0.494807 0.5147 0.493963 0.514701 0.494807 0.5147 0.493963 0.51496 0.494807 0.5147 0.494806 0.51496 0.493963 0.51496 0.493963 0.51496 0.494806 0.51496 0.494806 0.515045 0.493963 0.51496 0.494806 0.515045 0.493961 0.515694 0.494806 0.515045 0.494805 0.515694 0.493961 0.515694 0.49554 0.491141 0.494696 0.491142 0.494696 0.491067 0.49554 0.491141 0.494696 0.491067 0.495539 0.490345 0.494696 0.491067 0.494695 0.490345 0.495539 0.490345 0.495539 0.490345 0.494695 0.490345 0.494695 0.490263 0.495539 0.490345 0.494695 0.490263 0.495538 0.48943 0.494695 0.490263 0.494694 0.48943 0.495538 0.48943 0.495538 0.48943 0.494694 0.48943 0.494694 0.489343 0.495538 0.48943 0.494694 0.489343 0.495537 0.488847 0.495537 0.488847 0.494694 0.489343 0.494693 0.488847 0.495537 0.488847 0.494693 0.488847 0.495537 0.48842 0.494693 0.488847 0.494693 0.48842 0.495537 0.48842 0.495537 0.48842 0.494693 0.48842 0.494693 0.488333 0.495537 0.48842 0.494693 0.488333 0.495536 0.487346 0.494693 0.488333 0.494692 0.487346 0.495536 0.487346 0.495536 0.487346 0.494692 0.487346 0.494692 0.48726 0.495536 0.487346 0.494692 0.48726 0.495536 0.486235 0.494692 0.48726 0.494692 0.486235 0.495536 0.486235 0.495536 0.486235 0.494692 0.486235 0.494692 0.486155 0.495536 0.486235 0.494692 0.486155 0.495536 0.48512 0.494692 0.486155 0.494692 0.485121 0.495536 0.48512 0.495536 0.48512 0.494692 0.485121 0.494692 0.485048 0.495536 0.48512 0.494692 0.485048 0.495536 0.484032 0.494692 0.485048 0.494692 0.484033 0.495536 0.484032 0.495536 0.484032 0.494692 0.484033 0.494692 0.483969 0.495536 0.484032 0.494692 0.483969 0.495536 0.483001 0.494692 0.483969 0.494692 0.483002 0.495536 0.483001 0.495536 0.483001 0.494692 0.483002 0.494692 0.482948 0.495536 0.483001 0.494692 0.482948 0.495537 0.482056 0.494692 0.482948 0.494693 0.482057 0.495537 0.482056 0.495537 0.482056 0.494693 0.482057 0.494693 0.482014 0.495537 0.482056 0.494693 0.482014 0.495538 0.481224 0.494693 0.482014 0.494694 0.481224 0.495538 0.481224 0.495538 0.481224 0.494694 0.481224 0.494694 0.481192 0.495538 0.481224 0.494694 0.481192 0.495539 0.480527 0.494694 0.481192 0.494695 0.480527 0.495539 0.480527 0.495539 0.480527 0.494695 0.480527 0.494695 0.480505 0.495539 0.480527 0.494695 0.480505 0.49554 0.479985 0.494695 0.480505 0.494696 0.479985 0.49554 0.479985 0.458756 0.512531 0.457912 0.512532 0.457912 0.512514 0.458756 0.512531 0.457912 0.512514 0.458756 0.511871 0.457912 0.512514 0.457912 0.511871 0.458756 0.511871 0.458756 0.511871 0.457912 0.511871 0.457912 0.511854 0.458756 0.511871 0.457912 0.511854 0.458756 0.511069 0.457912 0.511854 0.457912 0.51107 0.458756 0.511069 0.458756 0.511069 0.457912 0.51107 0.457912 0.511054 0.458756 0.511069 0.457912 0.511054 0.458756 0.51015 0.457912 0.511054 0.457912 0.51015 0.458756 0.51015 0.458756 0.51015 0.457912 0.51015 0.457912 0.510138 0.458756 0.51015 0.457912 0.510138 0.458756 0.509137 0.458756 0.509137 0.457912 0.510138 0.457912 0.509131 0.458756 0.509137 0.457912 0.509131 0.457912 0.508061 0.457909 0.498239 0.457862 0.498242 0.457909 0.497916 0.457909 0.497916 0.457862 0.498242 0.457862 0.497906 0.484671 0.494648 0.484626 0.494661 0.484624 0.494321 0.484624 0.494321 0.484626 0.494661 0.484578 0.494321 0.484624 0.494321 0.484578 0.494321 0.484671 0.493995 0.484671 0.493995 0.484578 0.494321 0.484626 0.493982 0.49307 0.513576 0.493914 0.513576 0.493069 0.51461 0.493069 0.51461 0.493914 0.513576 0.493913 0.51461 0.473889 0.480219 0.473842 0.480219 0.47386 0.480129 0.473889 0.480219 0.47386 0.480129 0.473903 0.480147 0.473903 0.480147 0.47386 0.480129 0.473874 0.480102 0.473903 0.480147 0.473874 0.480102 0.473944 0.480086 0.473874 0.480102 0.473911 0.480053 0.473944 0.480086 0.493961 0.51342 0.493914 0.513431 0.493914 0.513371 0.473944 0.480086 0.473959 0.480016 0.474005 0.480046 0.473959 0.480016 0.473987 0.480002 0.474005 0.480046 0.474005 0.480046 0.473987 0.480002 0.474077 0.479985 0.474005 0.480046 0.474077 0.479985 0.474077 0.480031 0.493913 0.515397 0.493069 0.515397 0.493913 0.51509 0.493913 0.51509 0.493069 0.515397 0.493069 0.51509 0.493913 0.51509 0.493069 0.51509 0.493913 0.515087 0.493913 0.515087 0.493069 0.51509 0.493913 0.514819 0.493913 0.514819 0.493069 0.51509 0.493069 0.514819 0.493913 0.514819 0.493069 0.514819 0.493913 0.514817 0.493913 0.514817 0.493069 0.514819 0.493069 0.51461 0.493913 0.514817 0.493069 0.51461 0.493913 0.51461 0.457862 0.497903 0.457862 0.496985 0.457909 0.496982 0.457909 0.496982 0.457909 0.497906 0.457862 0.497903 0.482961 0.483781 0.482996 0.483751 0.483645 0.48466 0.482961 0.483781 0.483645 0.48466 0.483605 0.484684 0.483605 0.484684 0.483645 0.48466 0.484133 0.485665 0.483605 0.484684 0.484133 0.485665 0.484089 0.485682 0.484089 0.485682 0.484133 0.485665 0.484447 0.486737 0.484089 0.485682 0.484447 0.486737 0.484401 0.486746 0.484401 0.486746 0.484447 0.486737 0.484578 0.487846 0.484401 0.486746 0.484578 0.487846 0.484531 0.487847 0.484531 0.487847 0.484578 0.487846 0.484522 0.488961 0.484531 0.487847 0.484522 0.488961 0.484475 0.488955 0.457862 0.494754 0.457909 0.494751 0.457909 0.495868 0.457862 0.494754 0.457909 0.495868 0.457862 0.495863 0.484236 0.490038 0.484281 0.490052 0.483862 0.491087 0.484236 0.490038 0.483862 0.491087 0.48382 0.491066 0.48382 0.491066 0.483862 0.491087 0.483276 0.492038 0.48382 0.491066 0.483276 0.492038 0.483238 0.49201 0.483238 0.49201 0.483276 0.492038 0.48254 0.492878 0.483238 0.49201 0.48254 0.492878 0.482508 0.492844 0.482508 0.492844 0.48254 0.492878 0.48196 0.493376 0.482508 0.492844 0.48196 0.493376 0.481648 0.493545 0.48196 0.493376 0.481675 0.493583 0.481648 0.493545 0.481648 0.493545 0.481675 0.493583 0.480704 0.494135 0.481648 0.493545 0.480704 0.494135 0.480684 0.494092 0.480684 0.494092 0.480704 0.494135 0.479654 0.494517 0.480684 0.494092 0.479654 0.494517 0.479642 0.494472 0.479642 0.494472 0.479654 0.494517 0.478556 0.494719 0.479642 0.494472 0.478556 0.494719 0.478551 0.494672 0.478551 0.494672 0.478556 0.494719 0.477901 0.494704 0.477901 0.494704 0.478556 0.494719 0.477901 0.494751 0.477901 0.494704 0.477901 0.494751 0.477443 0.494688 0.477901 0.494751 0.477439 0.494735 0.477443 0.494688 0.477443 0.494688 0.477439 0.494735 0.476336 0.494565 0.477443 0.494688 0.476336 0.494565 0.476346 0.494519 0.476346 0.494519 0.476336 0.494565 0.475276 0.494213 0.476346 0.494519 0.475276 0.494213 0.475294 0.49417 0.457909 0.496981 0.457862 0.496982 0.457862 0.495868 0.457909 0.496981 0.457862 0.495868 0.457909 0.495874 0.474314 0.493651 0.474289 0.49369 0.473403 0.49301 0.474314 0.493651 0.473403 0.49301 0.473435 0.492975 0.473435 0.492975 0.473403 0.49301 0.472643 0.492191 0.473435 0.492975 0.472643 0.492191 0.47268 0.492162 0.47268 0.492162 0.472643 0.492191 0.47203 0.491258 0.47268 0.492162 0.47203 0.491258 0.472072 0.491235 0.472072 0.491235 0.47203 0.491258 0.471582 0.490235 0.472072 0.491235 0.471582 0.490235 0.471626 0.49022 0.471626 0.49022 0.471582 0.490235 0.471309 0.489152 0.471626 0.49022 0.471309 0.489152 0.471356 0.489145 0.471356 0.489145 0.471309 0.489152 0.471221 0.488039 0.471356 0.489145 0.471221 0.488039 0.471268 0.488039 0.471268 0.488039 0.471221 0.488039 0.47132 0.486926 0.471268 0.488039 0.47132 0.486926 0.471366 0.486934 0.471366 0.486934 0.47132 0.486926 0.471603 0.485846 0.471366 0.486934 0.471603 0.485846 0.471647 0.485862 0.471647 0.485862 0.471603 0.485846 0.472061 0.484828 0.471647 0.485862 0.472061 0.484828 0.472102 0.484851 0.472102 0.484851 0.472061 0.484828 0.472683 0.4839 0.472102 0.484851 0.472683 0.4839 0.47272 0.48393 0.47272 0.48393 0.472683 0.4839 0.473451 0.483089 0.47272 0.48393 0.473451 0.483089 0.473482 0.483124 0.473889 0.482215 0.473842 0.482215 0.473889 0.480219 0.473889 0.480219 0.473842 0.482215 0.473842 0.480219 0.4737 0.482867 0.473482 0.483124 0.473451 0.483089 0.473451 0.483089 0.47366 0.482842 0.4737 0.482867 0.4737 0.482867 0.47366 0.482842 0.473663 0.482839 0.4737 0.482867 0.473663 0.482839 0.473841 0.482555 0.473842 0.482215 0.473889 0.482215 0.473796 0.48254 0.473796 0.48254 0.473889 0.482215 0.473841 0.482555 0.473796 0.48254 0.473841 0.482555 0.473796 0.482542 0.473796 0.482542 0.473841 0.482555 0.473663 0.482839</float_array>
          <technique_common>
            <accessor source="#right_arm_link5-mesh-map-0-array" count="1716" stride="2">
              <param name="S" type="float"/>
              <param name="T" type="float"/>
            </accessor>
          </technique_common>
        </source>
        <vertices id="right_arm_link5-mesh-vertices">
          <input semantic="POSITION" source="#right_arm_link5-mesh-positions"/>
        </vertices>
        <triangles material="材质-material" count="572">
          <input semantic="VERTEX" source="#right_arm_link5-mesh-vertices" offset="0"/>
          <input semantic="NORMAL" source="#right_arm_link5-mesh-normals" offset="1"/>
          <input semantic="TEXCOORD" source="#right_arm_link5-mesh-map-0" offset="2" set="0"/>
          <p>0 0 0 1 1 1 2 2 2 2 2 3 1 1 4 3 3 5 2 2 6 3 3 7 4 4 8 4 4 9 3 3 10 5 5 11 4 4 12 5 5 13 6 6 14 7 7 15 8 8 16 9 9 17 9 9 18 8 8 19 10 10 20 11 11 21 12 12 22 1 1 23 1 1 24 12 12 25 13 13 26 1 1 27 13 13 28 14 14 29 6 6 30 5 5 31 9 9 32 9 9 33 5 5 34 15 15 35 9 9 36 15 15 37 7 7 38 16 16 39 1 17 40 17 18 41 17 18 42 1 17 43 18 19 44 10 10 45 19 20 46 9 9 47 9 9 48 19 20 49 20 21 50 9 9 51 20 21 52 21 22 53 0 0 54 22 23 55 1 1 56 1 1 57 22 23 58 23 24 59 1 1 60 23 24 61 24 25 62 14 14 63 25 26 64 1 1 65 1 17 66 25 27 67 26 28 68 1 17 69 26 28 70 18 19 71 21 29 72 27 30 73 9 31 74 9 31 75 27 30 76 28 32 77 9 31 78 28 32 79 29 33 80 29 33 81 28 32 82 30 34 83 29 33 84 30 34 85 31 35 86 31 35 87 30 34 88 32 36 89 31 35 90 32 36 91 33 16 92 24 25 93 34 37 94 1 1 95 1 1 96 34 37 97 35 38 98 1 1 99 35 38 100 11 11 101 4 39 102 36 40 103 37 41 104 4 39 105 37 41 106 2 42 107 2 43 108 37 43 109 38 43 110 2 43 111 38 43 112 0 43 113 0 44 114 38 44 115 39 44 116 0 44 117 39 44 118 22 45 119 22 46 120 39 46 121 40 46 122 22 46 123 40 46 124 23 47 125 23 48 126 40 49 127 41 50 128 23 48 129 41 50 130 24 51 131 24 52 132 41 53 133 42 54 134 24 52 135 42 54 136 34 52 137 34 55 138 42 56 139 43 57 140 34 55 141 43 57 142 35 58 143 35 59 144 43 60 145 44 61 146 35 59 147 44 61 148 11 62 149 11 63 150 44 64 151 45 63 152 11 63 153 45 63 154 12 64 155 12 65 156 45 66 157 46 67 158 12 65 159 46 67 160 13 68 161 13 69 162 46 69 163 47 69 164 13 70 165 47 70 166 48 70 167 48 71 168 47 71 169 49 71 170 48 72 171 49 72 172 25 72 173 25 73 174 49 74 175 50 73 176 25 73 177 50 73 178 26 74 179 26 75 180 50 76 181 51 77 182 26 75 183 51 77 184 18 78 185 18 79 186 51 80 187 52 81 188 18 79 189 52 81 190 17 82 191 17 83 192 52 84 193 53 85 194 17 83 195 53 85 196 16 86 197 16 87 198 53 88 199 54 89 200 16 87 201 54 89 202 1 90 203 1 91 204 54 92 205 55 93 206 1 91 207 55 93 208 3 94 209 3 95 210 55 96 211 56 97 212 3 95 213 56 97 214 5 98 215 5 99 216 56 100 217 57 101 218 5 99 219 57 101 220 15 102 221 15 103 222 57 103 223 58 103 224 15 103 225 58 103 226 7 104 227 7 105 228 58 105 229 59 105 230 7 105 231 59 105 232 8 105 233 8 106 234 59 107 235 60 107 236 8 106 237 60 107 238 10 106 239 10 108 240 60 109 241 61 108 242 10 108 243 61 108 244 19 109 245 19 110 246 61 110 247 62 110 248 19 111 249 62 111 250 63 111 251 63 112 252 62 112 253 64 112 254 63 113 255 64 113 256 21 113 257 21 114 258 64 115 259 65 115 260 21 114 261 65 115 262 27 116 263 27 117 264 65 118 265 66 119 266 27 117 267 66 119 268 28 120 269 28 121 270 66 122 271 67 123 272 28 121 273 67 123 274 30 124 275 30 125 276 67 126 277 68 125 278 30 125 279 68 125 280 32 126 281 32 127 282 68 128 283 69 129 284 32 127 285 69 129 286 33 127 287 33 130 288 69 131 289 70 132 290 33 130 291 70 132 292 31 133 293 31 134 294 70 135 295 71 136 296 31 134 297 71 136 298 29 137 299 29 138 300 71 139 301 72 140 302 29 138 303 72 140 304 9 141 305 9 142 306 72 143 307 73 144 308 9 142 309 73 144 310 6 145 311 6 146 312 73 147 313 36 148 314 6 146 315 36 148 316 4 149 317 37 150 318 36 151 319 54 152 320 54 152 321 36 151 322 73 153 323 54 152 324 73 153 325 55 154 326 52 155 327 51 156 328 42 157 329 52 155 330 42 157 331 53 151 332 53 151 333 42 157 334 54 152 335 54 152 336 42 157 337 41 158 338 54 152 339 41 158 340 40 159 341 40 159 342 39 160 343 54 152 344 54 152 345 39 160 346 38 161 347 54 152 348 38 161 349 37 150 350 55 154 351 73 153 352 56 162 353 56 162 354 73 153 355 72 163 356 56 162 357 72 163 358 71 164 359 71 164 360 70 165 361 56 162 362 56 162 363 70 165 364 69 166 365 56 162 366 69 166 367 68 167 368 65 168 369 64 169 370 66 170 371 66 170 372 64 169 373 62 151 374 66 170 375 62 151 376 61 171 377 61 171 378 60 172 379 66 170 380 66 170 381 60 172 382 59 173 383 66 170 384 59 173 385 58 174 386 68 167 387 67 175 388 56 162 389 56 162 390 67 175 391 66 170 392 56 162 393 66 170 394 57 176 395 57 176 396 66 170 397 58 174 398 44 177 399 49 178 400 45 179 401 45 179 402 49 178 403 47 151 404 45 179 405 47 151 406 46 151 407 51 156 408 50 180 409 42 157 410 42 157 411 50 180 412 49 178 413 42 157 414 49 178 415 43 151 416 43 151 417 49 178 418 44 177 419 74 151 420 75 151 421 76 181 422 77 182 423 78 151 424 79 183 425 79 183 426 78 151 427 80 184 428 75 151 429 81 185 430 76 181 431 76 181 432 81 185 433 82 186 434 76 181 435 82 186 436 83 187 437 84 188 438 77 182 439 85 189 440 78 151 441 86 190 442 80 184 443 80 184 444 86 190 445 87 191 446 80 192 447 87 151 448 88 151 449 88 151 450 89 193 451 80 192 452 80 192 453 89 193 454 90 194 455 80 192 456 90 194 457 76 181 458 76 181 459 90 194 460 91 195 461 76 181 462 91 195 463 74 151 464 92 196 465 93 197 466 94 198 467 77 182 468 79 183 469 85 189 470 85 189 471 79 183 472 95 199 473 85 189 474 95 199 475 96 151 476 82 186 477 97 200 478 83 187 479 83 187 480 97 200 481 98 201 482 83 187 483 98 201 484 99 202 485 100 151 486 101 151 487 85 189 488 85 189 489 101 151 490 102 203 491 85 189 492 102 203 493 84 188 494 99 202 495 103 204 496 83 187 497 83 187 498 103 204 499 104 205 500 83 187 501 104 205 502 105 206 503 105 206 504 106 207 505 83 187 506 83 187 507 106 207 508 107 208 509 83 187 510 107 208 511 94 209 512 94 209 513 107 208 514 108 210 515 94 209 516 108 210 517 92 211 518 109 151 519 110 212 520 95 199 521 95 199 522 110 212 523 111 213 524 95 199 525 111 213 526 96 151 527 93 197 528 112 214 529 94 198 530 94 198 531 112 214 532 113 215 533 94 198 534 113 215 535 114 216 536 114 216 537 115 217 538 94 198 539 94 198 540 115 217 541 116 218 542 94 198 543 116 218 544 117 219 545 117 219 546 118 151 547 94 198 548 94 220 549 118 220 550 119 220 551 94 221 552 119 221 553 120 221 554 121 222 555 122 223 556 123 224 557 124 16 558 125 225 559 126 226 560 126 226 561 125 225 562 127 227 563 126 226 564 127 227 565 128 228 566 128 228 567 129 16 568 126 226 569 126 226 570 129 16 571 130 16 572 126 226 573 130 16 574 131 229 575 131 229 576 130 16 577 132 230 578 124 16 579 126 226 580 133 231 581 133 231 582 126 226 583 134 232 584 133 231 585 134 232 586 135 233 587 136 234 588 137 235 589 123 224 590 123 224 591 137 235 592 138 236 593 123 224 594 138 236 595 134 232 596 134 232 597 138 236 598 139 237 599 134 232 600 139 237 601 135 233 602 121 222 603 123 224 604 140 238 605 141 239 606 142 16 607 143 16 608 144 240 609 145 241 610 123 224 611 123 224 612 145 241 613 146 242 614 123 224 615 146 242 616 140 238 617 122 223 618 147 243 619 123 224 620 123 224 621 147 243 622 148 244 623 123 224 624 148 244 625 149 245 626 150 16 627 151 246 628 152 247 629 152 247 630 151 246 631 153 248 632 152 247 633 153 248 634 154 249 635 143 16 636 155 250 637 141 239 638 141 239 639 155 250 640 131 229 641 141 239 642 131 229 643 153 248 644 153 248 645 131 229 646 132 230 647 153 248 648 132 230 649 154 249 650 156 251 651 157 252 652 158 253 653 158 253 654 157 252 655 159 254 656 149 245 657 160 255 658 123 224 659 123 224 660 160 255 661 161 256 662 123 224 663 161 256 664 136 234 665 156 251 666 158 253 667 123 224 668 123 224 669 158 253 670 162 257 671 123 224 672 162 257 673 144 240 674 159 254 675 163 258 676 158 253 677 158 253 678 163 258 679 164 259 680 158 253 681 164 259 682 165 16 683 165 16 684 164 259 685 166 16 686 154 260 687 167 261 688 168 262 689 154 260 690 168 262 691 152 263 692 152 264 693 168 265 694 169 266 695 152 264 696 169 266 697 150 267 698 150 268 699 169 269 700 170 270 701 150 268 702 170 270 703 151 271 704 151 272 705 170 273 706 171 274 707 151 272 708 171 274 709 153 275 710 167 276 711 154 277 712 172 278 713 172 278 714 154 277 715 132 279 716 173 280 717 141 280 718 171 281 719 171 281 720 141 280 721 153 281 722 174 282 723 171 283 724 170 284 725 174 282 726 170 284 727 175 285 728 175 286 729 170 287 730 169 288 731 175 286 732 169 288 733 176 289 734 176 290 735 169 291 736 168 292 737 176 290 738 168 292 739 177 293 740 177 294 741 168 295 742 167 296 743 177 294 744 167 296 745 178 297 746 172 298 747 132 299 748 179 300 749 179 300 750 132 299 751 130 301 752 179 302 753 130 303 754 180 304 755 180 304 756 130 303 757 129 305 758 180 306 759 129 307 760 181 308 761 181 308 762 129 307 763 128 309 764 172 310 765 182 310 766 167 310 767 167 310 768 182 310 769 178 310 770 141 311 771 173 312 772 183 313 773 141 311 774 183 313 775 142 314 776 142 315 777 183 316 778 184 317 779 142 315 780 184 317 781 143 318 782 143 319 783 184 320 784 185 321 785 143 319 786 185 321 787 155 322 788 173 323 789 171 323 790 186 323 791 186 323 792 171 323 793 174 323 794 85 324 795 174 325 796 175 326 797 85 324 798 175 326 799 100 327 800 100 328 801 175 329 802 176 330 803 100 328 804 176 330 805 101 331 806 101 332 807 176 333 808 177 334 809 101 332 810 177 334 811 102 335 812 102 336 813 177 337 814 178 338 815 102 336 816 178 338 817 84 339 818 123 340 819 187 341 820 188 342 821 123 340 822 188 342 823 156 343 824 156 344 825 188 345 826 189 346 827 156 344 828 189 346 829 157 347 830 157 348 831 189 349 832 190 350 833 157 351 834 190 352 835 159 353 836 190 352 837 191 354 838 159 353 839 159 355 840 191 356 841 192 357 842 159 358 843 192 358 844 163 358 845 192 359 846 193 359 847 163 359 848 163 360 849 193 361 850 194 362 851 163 363 852 194 364 853 164 365 854 194 366 855 195 366 856 164 366 857 164 367 858 195 367 859 196 367 860 164 368 861 196 368 862 166 368 863 196 369 864 197 370 865 166 371 866 166 372 867 197 373 868 198 374 869 166 375 870 198 376 871 165 375 872 198 377 873 199 377 874 165 378 875 165 379 876 199 379 877 200 379 878 165 380 879 200 380 880 158 380 881 200 381 882 201 382 883 158 383 884 158 384 885 201 385 886 202 386 887 158 387 888 202 387 889 162 387 890 202 388 891 203 389 892 162 390 893 162 391 894 203 391 895 204 392 896 162 393 897 204 393 898 144 394 899 204 395 900 205 396 901 144 397 902 144 398 903 205 399 904 206 400 905 144 401 906 206 401 907 145 401 908 206 402 909 207 402 910 145 402 911 145 403 912 207 404 913 208 404 914 145 405 915 208 406 916 146 407 917 208 408 918 209 409 919 146 408 920 146 410 921 209 410 922 210 410 923 146 411 924 210 411 925 140 411 926 210 412 927 211 413 928 140 414 929 140 415 930 211 416 931 212 417 932 140 418 933 212 419 934 121 420 935 212 421 936 213 422 937 121 423 938 121 424 939 213 425 940 214 426 941 121 427 942 214 428 943 122 429 944 122 430 945 214 430 946 215 430 947 122 431 948 215 432 949 147 433 950 215 432 951 216 434 952 147 433 953 147 435 954 216 436 955 217 437 956 147 438 957 217 439 958 148 440 959 217 441 960 218 442 961 148 443 962 148 444 963 218 445 964 219 446 965 148 447 966 219 448 967 149 449 968 220 450 969 160 450 970 221 450 971 221 451 972 160 452 973 149 453 974 221 454 975 149 455 976 222 456 977 222 457 978 149 457 979 219 457 980 220 458 981 223 458 982 160 458 983 160 459 984 223 460 985 224 460 986 160 461 987 224 461 988 161 461 989 224 462 990 225 463 991 161 464 992 161 465 993 225 466 994 226 467 995 161 468 996 226 469 997 136 470 998 226 471 999 227 472 1000 136 471 1001 136 473 1002 227 474 1003 228 474 1004 136 475 1005 228 475 1006 137 475 1007 228 476 1008 229 477 1009 137 477 1010 137 478 1011 229 479 1012 230 480 1013 137 481 1014 230 481 1015 138 481 1016 230 482 1017 231 483 1018 138 484 1019 138 485 1020 231 486 1021 232 485 1022 138 487 1023 232 488 1024 139 489 1025 232 490 1026 233 491 1027 139 492 1028 139 493 1029 233 494 1030 234 495 1031 139 496 1032 234 497 1033 135 498 1034 234 499 1035 235 499 1036 135 499 1037 135 500 1038 235 501 1039 236 502 1040 135 503 1041 236 504 1042 133 505 1043 236 506 1044 237 506 1045 133 506 1046 133 507 1047 237 508 1048 238 509 1049 133 510 1050 238 511 1051 124 512 1052 238 513 1053 239 513 1054 124 513 1055 124 514 1056 239 514 1057 240 514 1058 124 515 1059 240 516 1060 125 517 1061 240 518 1062 241 518 1063 125 519 1064 125 520 1065 241 520 1066 242 521 1067 125 522 1068 242 523 1069 127 522 1070 242 524 1071 243 525 1072 127 524 1073 127 526 1074 243 527 1075 181 528 1076 127 526 1077 181 528 1078 128 529 1079 180 530 1080 181 531 1081 244 532 1082 244 532 1083 245 533 1084 180 530 1085 180 534 1086 245 534 1087 246 534 1088 180 535 1089 246 535 1090 179 535 1091 179 536 1092 246 537 1093 247 538 1094 179 536 1095 247 538 1096 172 539 1097 84 540 1098 178 540 1099 77 540 1100 77 541 1101 178 541 1102 182 541 1103 248 542 1104 131 543 1105 185 544 1106 185 544 1107 131 543 1108 155 545 1109 249 546 1110 185 547 1111 250 548 1112 250 549 1113 185 549 1114 184 549 1115 250 550 1116 184 551 1117 251 552 1118 251 553 1119 184 553 1120 252 553 1121 252 554 1122 184 554 1123 183 554 1124 252 555 1125 183 556 1126 253 557 1127 253 558 1128 183 559 1129 254 560 1130 254 561 1131 183 561 1132 173 561 1133 254 562 1134 173 563 1135 186 564 1136 96 565 1137 186 565 1138 85 566 1139 85 566 1140 186 565 1141 174 566 1142 187 567 1143 123 568 1144 255 569 1145 255 569 1146 123 568 1147 134 570 1148 255 571 1149 134 572 1150 256 573 1151 256 573 1152 134 572 1153 126 574 1154 256 575 1155 126 576 1156 248 577 1157 248 577 1158 126 576 1159 131 578 1160 187 579 1161 257 579 1162 258 579 1163 259 580 1164 244 580 1165 181 580 1166 181 581 1167 243 581 1168 259 581 1169 259 582 1170 243 582 1171 242 582 1172 259 583 1173 242 583 1174 260 583 1175 260 584 1176 242 585 1177 241 586 1178 260 587 1179 241 587 1180 261 587 1181 241 588 1182 240 588 1183 261 588 1184 261 589 1185 240 589 1186 239 589 1187 261 590 1188 239 590 1189 262 590 1190 239 591 1191 238 591 1192 262 591 1193 262 592 1194 238 593 1195 237 594 1196 262 595 1197 237 595 1198 263 595 1199 237 596 1200 236 596 1201 263 596 1202 263 597 1203 236 598 1204 235 599 1205 263 600 1206 235 601 1207 264 602 1208 235 603 1209 234 604 1210 264 605 1211 264 606 1212 234 607 1213 233 608 1214 264 609 1215 233 609 1216 265 609 1217 233 610 1218 232 610 1219 265 610 1220 265 611 1221 232 612 1222 231 613 1223 265 614 1224 231 614 1225 266 614 1226 231 615 1227 230 615 1228 266 615 1229 266 616 1230 230 617 1231 229 618 1232 266 619 1233 229 619 1234 267 619 1235 229 620 1236 228 620 1237 267 620 1238 267 621 1239 228 621 1240 227 621 1241 267 622 1242 227 622 1243 268 622 1244 227 623 1245 226 623 1246 268 623 1247 268 624 1248 226 624 1249 225 624 1250 268 625 1251 225 626 1252 269 627 1253 269 627 1254 225 626 1255 224 628 1256 269 629 1257 224 630 1258 270 631 1259 224 630 1260 223 632 1261 270 631 1262 270 633 1263 223 634 1264 220 635 1265 270 636 1266 220 637 1267 271 638 1268 220 637 1269 221 639 1270 271 638 1271 271 640 1272 221 641 1273 222 642 1274 271 643 1275 222 644 1276 272 645 1277 222 644 1278 219 646 1279 272 645 1280 272 647 1281 219 647 1282 218 647 1283 272 648 1284 218 649 1285 273 650 1286 218 649 1287 217 651 1288 273 650 1289 273 652 1290 217 653 1291 216 654 1292 273 655 1293 216 656 1294 274 657 1295 274 657 1296 216 656 1297 215 658 1298 274 659 1299 215 660 1300 275 661 1301 215 660 1302 214 662 1303 275 661 1304 275 663 1305 214 664 1306 213 665 1307 275 666 1308 213 667 1309 276 668 1310 213 667 1311 212 669 1312 276 668 1313 276 670 1314 212 670 1315 277 670 1316 276 671 1317 277 672 1318 278 673 1319 277 672 1320 210 674 1321 278 673 1322 278 675 1323 210 675 1324 209 675 1325 278 676 1326 209 677 1327 279 678 1328 209 677 1329 208 679 1330 279 678 1331 279 680 1332 208 681 1333 207 682 1334 279 683 1335 207 684 1336 280 685 1337 207 684 1338 206 686 1339 280 685 1340 280 687 1341 206 688 1342 205 689 1343 280 690 1344 205 691 1345 281 692 1346 205 691 1347 204 693 1348 281 692 1349 281 694 1350 204 695 1351 203 696 1352 281 697 1353 203 698 1354 282 699 1355 203 698 1356 202 700 1357 282 699 1358 282 701 1359 202 702 1360 201 703 1361 282 704 1362 201 705 1363 283 706 1364 201 705 1365 200 707 1366 283 706 1367 283 708 1368 200 708 1369 284 708 1370 283 709 1371 284 710 1372 285 711 1373 284 710 1374 198 712 1375 285 711 1376 285 713 1377 198 714 1378 197 715 1379 285 716 1380 197 717 1381 286 718 1382 197 717 1383 196 719 1384 286 718 1385 286 720 1386 196 720 1387 195 720 1388 286 721 1389 195 722 1390 287 723 1391 195 722 1392 194 724 1393 287 723 1394 287 725 1395 194 726 1396 193 727 1397 287 728 1398 193 729 1399 288 730 1400 193 729 1401 192 731 1402 288 730 1403 288 732 1404 192 733 1405 191 734 1406 288 735 1407 191 736 1408 289 737 1409 191 736 1410 190 738 1411 289 737 1412 289 739 1413 190 740 1414 189 741 1415 289 742 1416 189 743 1417 258 744 1418 258 744 1419 189 743 1420 188 745 1421 258 746 1422 188 746 1423 187 746 1424 290 747 1425 291 748 1426 292 749 1427 292 749 1428 291 748 1429 293 750 1430 292 751 1431 293 752 1432 294 753 1433 294 753 1434 293 752 1435 78 754 1436 294 755 1437 78 756 1438 182 757 1439 182 757 1440 78 756 1441 295 758 1442 185 759 1443 249 759 1444 248 759 1445 248 759 1446 249 759 1447 296 759 1448 95 760 1449 249 761 1450 250 762 1451 95 760 1452 250 762 1453 109 763 1454 109 764 1455 250 765 1456 251 766 1457 109 767 1458 251 768 1459 110 769 1460 251 770 1461 252 771 1462 110 772 1463 110 773 1464 252 774 1465 253 775 1466 110 776 1467 253 777 1468 111 778 1469 253 779 1470 254 780 1471 111 781 1472 111 782 1473 254 783 1474 186 784 1475 111 782 1476 186 784 1477 96 785 1478 297 786 1479 298 787 1480 299 788 1481 299 788 1482 298 787 1483 255 789 1484 299 790 1485 255 791 1486 300 792 1487 300 793 1488 255 794 1489 301 795 1490 301 795 1491 255 794 1492 256 796 1493 301 797 1494 256 798 1495 302 799 1496 302 800 1497 256 801 1498 248 802 1499 302 800 1500 248 802 1501 296 803 1502 88 804 1503 87 805 1504 303 806 1505 303 806 1506 304 807 1507 88 804 1508 88 808 1509 304 809 1510 305 809 1511 88 810 1512 305 810 1513 89 810 1514 89 811 1515 305 811 1516 306 811 1517 89 812 1518 306 812 1519 90 812 1520 90 813 1521 306 814 1522 307 815 1523 90 816 1524 307 816 1525 91 816 1526 91 817 1527 307 817 1528 308 817 1529 91 818 1530 308 818 1531 74 818 1532 74 819 1533 308 820 1534 309 819 1535 74 821 1536 309 822 1537 75 823 1538 75 824 1539 309 825 1540 310 826 1541 75 827 1542 310 827 1543 81 827 1544 81 828 1545 310 828 1546 311 828 1547 81 829 1548 311 830 1549 82 831 1550 82 832 1551 311 833 1552 312 834 1553 82 835 1554 312 835 1555 97 835 1556 97 836 1557 312 837 1558 313 837 1559 97 838 1560 313 839 1561 98 839 1562 98 840 1563 313 840 1564 269 841 1565 98 842 1566 269 842 1567 99 843 1568 269 844 1569 314 845 1570 99 846 1571 99 847 1572 314 848 1573 315 849 1574 99 850 1575 315 851 1576 103 852 1577 103 853 1578 315 854 1579 316 855 1580 103 856 1581 316 856 1582 104 856 1583 104 857 1584 316 857 1585 317 857 1586 104 858 1587 317 858 1588 105 858 1589 105 859 1590 317 860 1591 106 861 1592 106 861 1593 317 860 1594 274 862 1595 106 863 1596 274 864 1597 107 865 1598 274 864 1599 318 866 1600 107 865 1601 107 867 1602 318 868 1603 319 869 1604 107 870 1605 319 871 1606 320 872 1607 320 873 1608 319 874 1609 321 875 1610 320 876 1611 321 877 1612 92 878 1613 92 879 1614 321 880 1615 322 881 1616 92 882 1617 322 883 1618 93 884 1619 93 885 1620 322 886 1621 323 887 1622 93 888 1623 323 889 1624 112 890 1625 112 891 1626 323 892 1627 281 893 1628 112 894 1629 281 894 1630 113 894 1631 113 895 1632 281 896 1633 282 897 1634 113 895 1635 282 897 1636 114 898 1637 114 899 1638 282 899 1639 283 899 1640 114 900 1641 283 900 1642 324 900 1643 324 901 1644 283 902 1645 285 903 1646 324 904 1647 285 905 1648 116 906 1649 116 907 1650 285 908 1651 286 907 1652 116 909 1653 286 909 1654 325 909 1655 325 910 1656 286 910 1657 326 910 1658 325 911 1659 326 911 1660 118 911 1661 118 912 1662 326 912 1663 288 912 1664 118 913 1665 288 914 1666 119 915 1667 119 916 1668 288 917 1669 327 918 1670 119 919 1671 327 919 1672 328 919 1673 328 920 1674 327 920 1675 329 920 1676 328 921 1677 329 922 1678 94 923 1679 94 924 1680 329 925 1681 297 926 1682 94 927 1683 297 928 1684 83 929 1685 79 930 1686 296 931 1687 95 932 1688 95 932 1689 296 931 1690 249 933 1691 76 934 1692 83 935 1693 297 936 1694 297 936 1695 299 937 1696 76 934 1697 76 938 1698 299 939 1699 300 940 1700 76 941 1701 300 942 1702 80 943 1703 296 944 1704 79 945 1705 302 946 1706 302 946 1707 79 945 1708 80 947 1709 302 948 1710 80 949 1711 301 950 1712 301 951 1713 80 943 1714 300 942 1715</p>
        </triangles>
      </mesh>
    </geometry>
  </library_geometries>
  <library_visual_scenes>
    <visual_scene id="Scene" name="Scene">
      <node id="right_arm_link5" name="right_arm_link5" type="NODE">
        <matrix sid="transform">1 0 0 0 0 1 0 0 0 0 1 0 0 0 0 1</matrix>
        <instance_geometry url="#right_arm_link5-mesh" name="right_arm_link5">
          <bind_material>
            <technique_common>
              <instance_material symbol="材质-material" target="#材质-material">
                <bind_vertex_input semantic="UVMap" input_semantic="TEXCOORD" input_set="0"/>
              </instance_material>
            </technique_common>
          </bind_material>
        </instance_geometry>
      </node>
    </visual_scene>
  </library_visual_scenes>
  <scene>
    <instance_visual_scene url="#Scene"/>
  </scene>
</COLLADA>