<?xml version="1.0" encoding="utf-8"?>
<COLLADA xmlns="http://www.collada.org/2005/11/COLLADASchema" version="1.4.1" xmlns:xsi="http://www.w3.org/2001/XMLSchema-instance">
  <asset>
    <contributor>
      <author>Blender User</author>
      <authoring_tool>Blender 4.5.5 LTS commit date:2025-11-17, commit time:16:03, hash:836beaaf597a</authoring_tool>
    </contributor>
    <created>2026-01-08T13:41:56</created>
    <modified>2026-01-08T13:41:56</modified>
    <unit name="meter" meter="1"/>
    <up_axis>Z_UP</up_axis>
  </asset>
  <library_effects>
    <effect id="材质-effect">
      <profile_COMMON>
        <newparam sid="texture_jpeg-surface">
          <surface type="2D">
            <init_from>texture_jpeg</init_from>
          </surface>
        </newparam>
        <newparam sid="texture_jpeg-sampler">
          <sampler2D>
            <source>texture_jpeg-surface</source>
          </sampler2D>
        </newparam>
        <technique sid="common">
          <lambert>
            <emission>
              <color sid="emission">0 0 0 1</color>
            </emission>
            <diffuse>
              <texture texture="texture_jpeg-sampler" texcoord="UVMap"/>
            </diffuse>
            <index_of_refraction>
              <float sid="ior">1.5</float>
            </index_of_refraction>
          </lambert>
        </technique>
      </profile_COMMON>
    </effect>
  </library_effects>
  <library_images>
    <image id="texture_jpeg" name="texture_jpeg">
      <init_from>texture.jpeg</init_from>
    </image>
  </library_images>
  <library_materials>
    <material id="材质-material" name="材质">
      <instance_effect url="#材质-effect"/>
    </material>
  </library_materials>
  <library_geometries>
    <geometry id="wheel_motor_link3-mesh" name="wheel_motor_link3">
      <mesh>
        <source id="wheel_motor_link3-mesh-positions">
          <float_array id="wheel_motor_link3-mesh-positions-array" count="228">0.06999999 0.02399998 0 0.06999999 -0.02399998 0 0.069045 -0.02399998 -0.01152199 0.069045 0.02399998 -0.01152199 0.06620699 -0.02399998 -0.02272897 0.06620699 0.02399998 -0.02272897 0.06156295 -0.02399998 -0.03331595 0.06156295 0.02399998 -0.03331595 0.05523997 -0.02399998 -0.04299497 0.05523997 0.02399998 -0.04299497 0.04740995 -0.02399998 -0.05150097 0.04740995 0.02399998 -0.05150097 0.03828597 -0.02399998 -0.05860197 0.03828597 0.02399998 -0.05860197 0.02811896 -0.02399998 -0.06410396 0.02811896 0.02399998 -0.06410396 0.01718395 -0.02399998 -0.06785798 0.01718395 0.02399998 -0.06785798 0.005780994 -0.02399998 -0.06976097 0.005780994 0.02399998 -0.06976097 -0.005780994 -0.02399998 -0.06976097 -0.005780994 0.02399998 -0.06976097 -0.01718395 -0.02399998 -0.06785798 -0.01718395 0.02399998 -0.06785798 -0.02811896 -0.02399998 -0.06410396 -0.02811896 0.02399998 -0.06410396 -0.03828597 -0.02399998 -0.05860197 -0.03828597 0.02399998 -0.05860197 -0.04740995 -0.02399998 -0.05150097 -0.04740995 0.02399998 -0.05150097 -0.05523997 -0.02399998 -0.04299497 -0.05523997 0.02399998 -0.04299497 -0.06156295 -0.02399998 -0.03331595 -0.06156295 0.02399998 -0.03331595 -0.06620699 -0.02399998 -0.02272897 -0.06620699 0.02399998 -0.02272897 -0.069045 -0.02399998 -0.01152199 -0.069045 0.02399998 -0.01152199 -0.06999999 -0.02399998 0 -0.06999999 0.02399998 0 0.069045 -0.02399998 0.01152199 0.06620699 -0.02399998 0.02272897 0.06156295 -0.02399998 0.03331595 0.05523997 -0.02399998 0.04299497 0.04740995 -0.02399998 0.05150097 0.03828597 -0.02399998 0.05860197 0.02811896 -0.02399998 0.06410396 -0.03828597 -0.02399998 0.05860197 -0.04740995 -0.02399998 0.05150097 0.01718395 -0.02399998 0.06785798 0.005780994 -0.02399998 0.06976097 -0.005780994 -0.02399998 0.06976097 -0.01718395 -0.02399998 0.06785798 -0.02811896 -0.02399998 0.06410396 -0.06156295 -0.02399998 0.03331595 -0.069045 -0.02399998 0.01152199 -0.06620699 -0.02399998 0.02272897 -0.05523997 -0.02399998 0.04299497 -0.069045 0.02399998 0.01152199 -0.06620699 0.02399998 0.02272897 -0.06156295 0.02399998 0.03331595 -0.05523997 0.02399998 0.04299497 -0.04740995 0.02399998 0.05150097 -0.03828597 0.02399998 0.05860197 -0.02811896 0.02399998 0.06410396 -0.01718395 0.02399998 0.06785798 -0.005780994 0.02399998 0.06976097 0.005780994 0.02399998 0.06976097 0.01718395 0.02399998 0.06785798 0.02811896 0.02399998 0.06410396 0.03828597 0.02399998 0.05860197 0.04740995 0.02399998 0.05150097 0.05523997 0.02399998 0.04299497 0.06156295 0.02399998 0.03331595 0.06620699 0.02399998 0.02272897 0.069045 0.02399998 0.01152199</float_array>
          <technique_common>
            <accessor source="#wheel_motor_link3-mesh-positions-array" count="76" stride="3">
              <param name="X" type="float"/>
              <param name="Y" type="float"/>
              <param name="Z" type="float"/>
            </accessor>
          </technique_common>
        </source>
        <source id="wheel_motor_link3-mesh-normals">
          <float_array id="wheel_motor_link3-mesh-normals-array" count="468">0.9965826 0 -0.08260166 0.9694003 0 -0.2454857 0.9694003 0 -0.2454857 0.9157699 0 -0.4017034 0.9157699 0 -0.4017034 0.9157699 0 -0.4017034 0.9157698 0 -0.4017035 0.8371905 0 -0.5469116 0.8371905 0 -0.5469114 0.8371905 0 -0.5469115 0.8371904 0 -0.5469116 0.7357379 0 -0.6772664 0.6141864 0 -0.789161 0.4759403 0 -0.8794776 0.4759398 0 -0.879478 0.4759399 0 -0.8794779 0.4759404 0 -0.8794776 0.3247007 0 -0.9458169 0.3247007 0 -0.9458169 0.1646088 0 -0.986359 0 0 -1 -0.1646088 0 -0.986359 -0.3247007 0 -0.9458169 -0.3247007 0 -0.9458169 -0.4759399 0 -0.8794779 -0.4759404 0 -0.8794776 -0.4759403 0 -0.8794776 -0.4759398 0 -0.879478 -0.6141864 0 -0.789161 -0.7357379 0 -0.6772664 -0.8371905 0 -0.5469115 -0.8371904 0 -0.5469116 -0.8371905 0 -0.5469116 -0.8371905 0 -0.5469114 -0.9157699 0 -0.4017034 -0.9157698 0 -0.4017035 -0.9157699 0 -0.4017034 -0.9157699 0 -0.4017034 -0.9694003 0 -0.2454857 -0.9694003 0 -0.2454857 -0.9965826 0 -0.08260166 0 -1 5.5707e-7 0 -1 -1.84191e-7 0 -1 0 0 -1 0 0 -1 0 0 -1 0 0 -1 0 0 -1 0 0 -1 0 0 -1 1.75105e-7 0 -1 0 0 -1 1.53693e-7 0 -1 0 0 -1 0 0 -1 0 0 -1 0 0 -1 0 0 -1 0 0 -1 -3.22574e-7 0 -1 0 0 -1 -8.47195e-7 0 -1 6.99504e-7 0 -1 1.77554e-7 0 -1 -9.01628e-7 0 -1 -9.38706e-7 0 -1 -2.64609e-6 0 -1 -3.24305e-7 0 -1 0 0 -1 -1.67416e-7 0 -1 0 0 -1 2.03874e-7 0 -1 0 0 -1 0 0 -1 0 0 -1 0 0 -1 6.61463e-7 0 -1 -1.2638e-7 -0.9965826 0 0.08260166 -0.9694003 0 0.2454857 -0.9694003 0 0.2454857 -0.9157699 0 0.4017034 -0.9157699 0 0.4017034 -0.9157699 0 0.4017034 -0.9157698 0 0.4017035 -0.8371905 0 0.5469116 -0.8371905 0 0.5469114 -0.8371905 0 0.5469115 -0.8371904 0 0.5469116 -0.7357379 0 0.6772664 -0.6141864 0 0.789161 -0.4759403 0 0.8794776 -0.4759398 0 0.879478 -0.4759399 0 0.8794779 -0.4759404 0 0.8794776 -0.3247007 0 0.9458169 -0.3247007 0 0.9458169 -0.1646088 0 0.986359 0 0 1 0.1646088 0 0.986359 0.3247007 0 0.9458169 0.3247007 0 0.9458169 0.4759399 0 0.8794779 0.4759404 0 0.8794776 0.4759403 0 0.8794776 0.4759398 0 0.879478 0.6141864 0 0.789161 0.7357379 0 0.6772664 0.8371905 0 0.5469115 0.8371904 0 0.5469116 0.8371905 0 0.5469116 0.8371905 0 0.5469114 0.9157699 0 0.4017034 0.9157698 0 0.4017035 0.9157699 0 0.4017034 0.9157699 0 0.4017034 0.9694003 0 0.2454857 0.9694003 0 0.2454857 0.9965826 0 0.08260166 0 1 -1.75511e-7 0 1 0 0 1 0 0 1 1.73042e-6 0 1 0 0 1 -3.08114e-7 0 1 0 0 1 1.91012e-7 0 1 0 0 1 0 0 1 0 0 1 0 0 1 2.80087e-7 0 1 -1.34363e-7 0 1 4.87476e-7 0 1 0 0 1 -6.21636e-7 0 1 -1.60574e-6 0 1 0 0 1 1.80405e-6 0 1 2.64551e-6 0 1 0 0 1 0 0 1 0 0 1 0 0 1 -1.3524e-7 0 1 1.57261e-7 0 1 0 0 1 1.36145e-7 0 1 0 0 1 0 0 1 3.55136e-7 0 1 4.75838e-7 0 1 -7.53228e-7 0 1 0 0 1 5.57126e-7 0 1 0</float_array>
          <technique_common>
            <accessor source="#wheel_motor_link3-mesh-normals-array" count="156" stride="3">
              <param name="X" type="float"/>
              <param name="Y" type="float"/>
              <param name="Z" type="float"/>
            </accessor>
          </technique_common>
        </source>
        <source id="wheel_motor_link3-mesh-map-0">
          <float_array id="wheel_motor_link3-mesh-map-0-array" count="888">0.629961 0.27167 0.629961 0.27167 0.629961 0.27167 0.629961 0.27167 0.629961 0.27167 0.629961 0.27167 0.629961 0.27167 0.629961 0.27167 0.629961 0.27167 0.629961 0.27167 0.629961 0.27167 0.629961 0.27167 0.629961 0.27167 0.629961 0.27167 0.629961 0.27167 0.629961 0.27167 0.629961 0.27167 0.629961 0.27167 0.629961 0.27167 0.629961 0.27167 0.629961 0.27167 0.629961 0.27167 0.629961 0.27167 0.629961 0.27167 0.629961 0.27167 0.629961 0.27167 0.629961 0.27167 0.629961 0.27167 0.629961 0.27167 0.629961 0.27167 0.629961 0.27167 0.629961 0.27167 0.629961 0.27167 0.629961 0.27167 0.629961 0.27167 0.629961 0.27167 0.629961 0.27167 0.629961 0.27167 0.629961 0.27167 0.629961 0.27167 0.629961 0.27167 0.629961 0.27167 0.629961 0.27167 0.629961 0.27167 0.629961 0.27167 0.629961 0.27167 0.629961 0.27167 0.629961 0.27167 0.629961 0.27167 0.629961 0.27167 0.629961 0.27167 0.629961 0.27167 0.629961 0.27167 0.629961 0.27167 0.629961 0.27167 0.629961 0.27167 0.629961 0.27167 0.629961 0.27167 0.629961 0.27167 0.629961 0.27167 0.629961 0.27167 0.629961 0.27167 0.629961 0.27167 0.629961 0.27167 0.629961 0.27167 0.629961 0.27167 0.629961 0.27167 0.629961 0.27167 0.629961 0.27167 0.629961 0.27167 0.629961 0.27167 0.629961 0.27167 0.629961 0.27167 0.629961 0.27167 0.629961 0.27167 0.629961 0.27167 0.629961 0.27167 0.629961 0.27167 0.629961 0.27167 0.629961 0.27167 0.629961 0.27167 0.629961 0.27167 0.629961 0.27167 0.629961 0.27167 0.629961 0.27167 0.629961 0.27167 0.629961 0.27167 0.629961 0.27167 0.629961 0.27167 0.629961 0.27167 0.629961 0.27167 0.629961 0.27167 0.629961 0.27167 0.629961 0.27167 0.629961 0.27167 0.629961 0.27167 0.629961 0.27167 0.629961 0.27167 0.629961 0.27167 0.629961 0.27167 0.629961 0.27167 0.629961 0.27167 0.629961 0.27167 0.629961 0.27167 0.629961 0.27167 0.629961 0.27167 0.629961 0.27167 0.629961 0.27167 0.629961 0.27167 0.629961 0.27167 0.629961 0.27167 0.629961 0.27167 0.629961 0.27167 0.629961 0.27167 0.629961 0.27167 0.629961 0.27167 0.629961 0.27167 0.629961 0.27167 0.629961 0.27167 0.629961 0.27167 0.629961 0.27167 0.629961 0.27167 0.629961 0.27167 0.629961 0.27167 0.629961 0.27167 0.629961 0.27167 0.629961 0.27167 0.629961 0.27167 0.629961 0.27167 0.629961 0.27167 0.629961 0.27167 0.629961 0.27167 0.629961 0.27167 0.629961 0.27167 0.629961 0.27167 0.629961 0.27167 0.629961 0.27167 0.629961 0.27167 0.629961 0.27167 0.629961 0.27167 0.629961 0.27167 0.629961 0.27167 0.629961 0.27167 0.629961 0.27167 0.629961 0.27167 0.629961 0.27167 0.629961 0.27167 0.629961 0.27167 0.629961 0.27167 0.629961 0.27167 0.629961 0.27167 0.629961 0.27167 0.629961 0.27167 0.629961 0.27167 0.629961 0.27167 0.629961 0.27167 0.629961 0.27167 0.629961 0.27167 0.629961 0.27167 0.629961 0.27167 0.629961 0.27167 0.629961 0.27167 0.629961 0.27167 0.629961 0.27167 0.629961 0.27167 0.629961 0.27167 0.629961 0.27167 0.629961 0.27167 0.629961 0.27167 0.629961 0.27167 0.629961 0.27167 0.629961 0.27167 0.629961 0.27167 0.629961 0.27167 0.629961 0.27167 0.629961 0.27167 0.629961 0.27167 0.629961 0.27167 0.629961 0.27167 0.629961 0.27167 0.629961 0.27167 0.629961 0.27167 0.629961 0.27167 0.629961 0.27167 0.629961 0.27167 0.629961 0.27167 0.629961 0.27167 0.629961 0.27167 0.629961 0.27167 0.629961 0.27167 0.629961 0.27167 0.629961 0.27167 0.629961 0.27167 0.629961 0.27167 0.629961 0.27167 0.629961 0.27167 0.629961 0.27167 0.629961 0.27167 0.629961 0.27167 0.629961 0.27167 0.629961 0.27167 0.629961 0.27167 0.629961 0.27167 0.629961 0.27167 0.629961 0.27167 0.629961 0.27167 0.629961 0.27167 0.629961 0.27167 0.629961 0.27167 0.629961 0.27167 0.629961 0.27167 0.629961 0.27167 0.629961 0.27167 0.629961 0.27167 0.629961 0.27167 0.629961 0.27167 0.629961 0.27167 0.629961 0.27167 0.629961 0.27167 0.629961 0.27167 0.629961 0.27167 0.629961 0.27167 0.629961 0.27167 0.629961 0.27167 0.629961 0.27167 0.629961 0.27167 0.629961 0.27167 0.629961 0.27167 0.629961 0.27167 0.629961 0.27167 0.629961 0.27167 0.629961 0.27167 0.629961 0.27167 0.629961 0.27167 0.629961 0.27167 0.629961 0.27167 0.629961 0.27167 0.629961 0.27167 0.629961 0.27167 0.629961 0.27167 0.629961 0.27167 0.629961 0.27167 0.629961 0.27167 0.629961 0.27167 0.629961 0.27167 0.629961 0.27167 0.629961 0.27167 0.629961 0.27167 0.629961 0.27167 0.629961 0.27167 0.629961 0.27167 0.629961 0.27167 0.629961 0.27167 0.629961 0.27167 0.629961 0.27167 0.629961 0.27167 0.629961 0.27167 0.629961 0.27167 0.629961 0.27167 0.629961 0.27167 0.629961 0.27167 0.629961 0.27167 0.629961 0.27167 0.629961 0.27167 0.629961 0.27167 0.629961 0.27167 0.629961 0.27167 0.629961 0.27167 0.629961 0.27167 0.629961 0.27167 0.629961 0.27167 0.629961 0.27167 0.629961 0.27167 0.629961 0.27167 0.629961 0.27167 0.629961 0.27167 0.629961 0.27167 0.629961 0.27167 0.629961 0.27167 0.629961 0.27167 0.629961 0.27167 0.629961 0.27167 0.629961 0.27167 0.629961 0.27167 0.629961 0.27167 0.629961 0.27167 0.629961 0.27167 0.629961 0.27167 0.629961 0.27167 0.629961 0.27167 0.629961 0.27167 0.629961 0.27167 0.629961 0.27167 0.629961 0.27167 0.629961 0.27167 0.629961 0.27167 0.629961 0.27167 0.629961 0.27167 0.629961 0.27167 0.629961 0.27167 0.629961 0.27167 0.629961 0.27167 0.629961 0.27167 0.629961 0.27167 0.629961 0.27167 0.629961 0.27167 0.629961 0.27167 0.629961 0.27167 0.629961 0.27167 0.629961 0.27167 0.629961 0.27167 0.629961 0.27167 0.629961 0.27167 0.629961 0.27167 0.629961 0.27167 0.629961 0.27167 0.629961 0.27167 0.629961 0.27167 0.629961 0.27167 0.629961 0.27167 0.629961 0.27167 0.629961 0.27167 0.629961 0.27167 0.629961 0.27167 0.629961 0.27167 0.629961 0.27167 0.629961 0.27167 0.629961 0.27167 0.629961 0.27167 0.629961 0.27167 0.629961 0.27167 0.629961 0.27167 0.629961 0.27167 0.629961 0.27167 0.629961 0.27167 0.629961 0.27167 0.629961 0.27167 0.629961 0.27167 0.629961 0.27167 0.629961 0.27167 0.629961 0.27167 0.629961 0.27167 0.629961 0.27167 0.629961 0.27167 0.629961 0.27167 0.629961 0.27167 0.629961 0.27167 0.629961 0.27167 0.629961 0.27167 0.629961 0.27167 0.629961 0.27167 0.629961 0.27167 0.629961 0.27167 0.629961 0.27167 0.629961 0.27167 0.629961 0.27167 0.629961 0.27167 0.629961 0.27167 0.629961 0.27167 0.629961 0.27167 0.629961 0.27167 0.629961 0.27167 0.629961 0.27167 0.629961 0.27167 0.629961 0.27167 0.629961 0.27167 0.629961 0.27167 0.629961 0.27167 0.629961 0.27167 0.629961 0.27167 0.629961 0.27167 0.629961 0.27167 0.629961 0.27167 0.629961 0.27167 0.629961 0.27167 0.629961 0.27167 0.629961 0.27167 0.629961 0.27167 0.629961 0.27167 0.629961 0.27167 0.629961 0.27167 0.629961 0.27167 0.629961 0.27167 0.629961 0.27167 0.629961 0.27167 0.629961 0.27167 0.629961 0.27167 0.629961 0.27167 0.629961 0.27167 0.629961 0.27167 0.629961 0.27167 0.629961 0.27167 0.629961 0.27167 0.629961 0.27167 0.629961 0.27167 0.629961 0.27167 0.629961 0.27167 0.629961 0.27167 0.629961 0.27167 0.629961 0.27167 0.629961 0.27167 0.629961 0.27167 0.629961 0.27167 0.629961 0.27167 0.629961 0.27167 0.629961 0.27167 0.629961 0.27167 0.629961 0.27167 0.629961 0.27167 0.629961 0.27167 0.629961 0.27167 0.629961 0.27167 0.629961 0.27167 0.629961 0.27167 0.629961 0.27167 0.629961 0.27167 0.629961 0.27167 0.629961 0.27167 0.629961 0.27167 0.629961 0.27167 0.629961 0.27167 0.629961 0.27167 0.629961 0.27167 0.629961 0.27167 0.629961 0.27167 0.629961 0.27167 0.629961 0.27167 0.629961 0.27167 0.629961 0.27167 0.629961 0.27167 0.629961 0.27167 0.629961 0.27167 0.629961 0.27167 0.629961 0.27167 0.629961 0.27167 0.629961 0.27167 0.629961 0.27167 0.629961 0.27167 0.629961 0.27167 0.629961 0.27167 0.629961 0.27167 0.629961 0.27167 0.629961 0.27167 0.629961 0.27167</float_array>
          <technique_common>
            <accessor source="#wheel_motor_link3-mesh-map-0-array" count="444" stride="2">
              <param name="S" type="float"/>
              <param name="T" type="float"/>
            </accessor>
          </technique_common>
        </source>
        <vertices id="wheel_motor_link3-mesh-vertices">
          <input semantic="POSITION" source="#wheel_motor_link3-mesh-positions"/>
        </vertices>
        <triangles material="材质-material" count="148">
          <input semantic="VERTEX" source="#wheel_motor_link3-mesh-vertices" offset="0"/>
          <input semantic="NORMAL" source="#wheel_motor_link3-mesh-normals" offset="1"/>
          <input semantic="TEXCOORD" source="#wheel_motor_link3-mesh-map-0" offset="2" set="0"/>
          <p>0 0 0 1 0 1 2 0 2 0 0 3 2 0 4 3 0 5 3 1 6 2 2 7 4 1 8 3 1 9 4 1 10 5 2 11 5 3 12 4 4 13 6 5 14 5 3 15 6 5 16 7 6 17 7 7 18 6 8 19 8 9 20 7 7 21 8 9 22 9 10 23 9 11 24 8 11 25 10 11 26 9 11 27 10 11 28 11 11 29 11 12 30 10 12 31 12 12 32 11 12 33 12 12 34 13 12 35 13 13 36 12 14 37 14 15 38 13 13 39 14 15 40 15 16 41 15 17 42 14 18 43 16 17 44 15 17 45 16 17 46 17 18 47 17 19 48 16 19 49 18 19 50 17 19 51 18 19 52 19 19 53 19 20 54 18 20 55 20 20 56 19 20 57 20 20 58 21 20 59 21 21 60 20 21 61 22 21 62 21 21 63 22 21 64 23 21 65 23 22 66 22 23 67 24 22 68 23 22 69 24 22 70 25 23 71 25 24 72 24 25 73 26 26 74 25 24 75 26 26 76 27 27 77 27 28 78 26 28 79 28 28 80 27 28 81 28 28 82 29 28 83 29 29 84 28 29 85 30 29 86 29 29 87 30 29 88 31 29 89 31 30 90 30 31 91 32 32 92 31 30 93 32 32 94 33 33 95 33 34 96 32 35 97 34 36 98 33 34 99 34 36 100 35 37 101 35 38 102 34 39 103 36 38 104 35 38 105 36 38 106 37 39 107 37 40 108 36 40 109 38 40 110 37 40 111 38 40 112 39 40 113 30 41 114 28 42 115 14 43 116 40 44 117 41 45 118 34 46 119 34 46 120 41 45 121 42 47 122 34 46 123 42 47 124 43 48 125 43 48 126 44 49 127 34 46 128 34 46 129 44 49 130 45 50 131 34 46 132 45 50 133 46 51 134 30 41 135 14 43 136 32 52 137 47 53 138 48 54 139 34 46 140 4 55 141 2 56 142 34 46 143 34 46 144 2 56 145 1 57 146 34 46 147 1 57 148 40 44 149 46 51 150 49 58 151 34 46 152 34 46 153 49 58 154 50 59 155 34 46 156 50 59 157 51 60 158 28 42 159 26 61 160 14 43 161 14 43 162 26 61 163 24 62 164 14 43 165 24 62 166 22 63 167 22 63 168 20 64 169 14 43 170 14 43 171 20 64 172 18 65 173 14 43 174 18 65 175 16 66 176 32 52 177 14 43 178 34 46 179 34 46 180 14 43 181 12 67 182 34 46 183 12 67 184 10 68 185 10 68 186 8 69 187 34 46 188 34 46 189 8 69 190 6 70 191 34 46 192 6 70 193 4 55 194 51 60 195 52 71 196 34 46 197 34 46 198 52 71 199 53 72 200 34 46 201 53 72 202 47 53 203 38 73 204 54 74 205 55 75 206 55 75 207 54 74 208 56 76 209 48 54 210 57 73 211 34 46 212 34 46 213 57 73 214 54 74 215 34 46 216 54 74 217 36 77 218 36 77 219 54 74 220 38 73 221 39 78 222 38 78 223 55 78 224 39 78 225 55 78 226 58 78 227 58 79 228 55 80 229 56 79 230 58 79 231 56 79 232 59 80 233 59 81 234 56 82 235 54 83 236 59 81 237 54 83 238 60 84 239 60 85 240 54 86 241 57 87 242 60 85 243 57 87 244 61 88 245 61 89 246 57 89 247 48 89 248 61 89 249 48 89 250 62 89 251 62 90 252 48 90 253 47 90 254 62 90 255 47 90 256 63 90 257 63 91 258 47 92 259 53 93 260 63 91 261 53 93 262 64 94 263 64 95 264 53 96 265 52 95 266 64 95 267 52 95 268 65 96 269 65 97 270 52 97 271 51 97 272 65 97 273 51 97 274 66 97 275 66 98 276 51 98 277 50 98 278 66 98 279 50 98 280 67 98 281 67 99 282 50 99 283 49 99 284 67 99 285 49 99 286 68 99 287 68 100 288 49 101 289 46 100 290 68 100 291 46 100 292 69 101 293 69 102 294 46 103 295 45 104 296 69 102 297 45 104 298 70 105 299 70 106 300 45 106 301 44 106 302 70 106 303 44 106 304 71 106 305 71 107 306 44 107 307 43 107 308 71 107 309 43 107 310 72 107 311 72 108 312 43 109 313 42 110 314 72 108 315 42 110 316 73 111 317 73 112 318 42 113 319 41 114 320 73 112 321 41 114 322 74 115 323 74 116 324 41 117 325 40 116 326 74 116 327 40 116 328 75 117 329 75 118 330 40 118 331 1 118 332 75 118 333 1 118 334 0 118 335 72 119 336 73 120 337 37 121 338 11 122 339 13 123 340 15 124 341 0 125 342 23 126 343 25 127 344 58 128 345 59 129 346 71 130 347 71 130 348 59 129 349 60 131 350 71 130 351 60 131 352 61 132 353 61 132 354 62 133 355 71 130 356 71 130 357 62 133 358 63 134 359 71 130 360 63 134 361 64 135 362 69 136 363 66 137 364 68 138 365 68 138 366 66 137 367 67 139 368 17 140 369 19 123 370 5 141 371 25 127 372 27 142 373 0 125 374 0 125 375 27 142 376 29 143 377 0 125 378 29 143 379 31 144 380 73 120 381 74 145 382 37 121 383 37 121 384 74 145 385 75 146 386 37 121 387 75 146 388 35 147 389 35 147 390 75 146 391 0 125 392 35 147 393 0 125 394 33 148 395 33 148 396 0 125 397 31 144 398 72 119 399 37 121 400 71 130 401 71 130 402 37 121 403 39 149 404 71 130 405 39 149 406 58 128 407 69 136 408 70 150 409 66 137 410 66 137 411 70 150 412 71 130 413 66 137 414 71 130 415 65 151 416 65 151 417 71 130 418 64 135 419 11 122 420 15 124 421 9 152 422 0 125 423 3 153 424 23 126 425 23 126 426 3 153 427 5 141 428 23 126 429 5 141 430 21 154 431 21 154 432 5 141 433 19 123 434 17 140 435 5 141 436 15 124 437 15 124 438 5 141 439 7 155 440 15 124 441 7 155 442 9 152 443</p>
        </triangles>
      </mesh>
    </geometry>
  </library_geometries>
  <library_visual_scenes>
    <visual_scene id="Scene" name="Scene">
      <node id="wheel_motor_link3" name="wheel_motor_link3" type="NODE">
        <matrix sid="transform">1 0 0 0 0 1 0 0 0 0 1 0 0 0 0 1</matrix>
        <instance_geometry url="#wheel_motor_link3-mesh" name="wheel_motor_link3">
          <bind_material>
            <technique_common>
              <instance_material symbol="材质-material" target="#材质-material">
                <bind_vertex_input semantic="UVMap" input_semantic="TEXCOORD" input_set="0"/>
              </instance_material>
            </technique_common>
          </bind_material>
        </instance_geometry>
      </node>
    </visual_scene>
  </library_visual_scenes>
  <scene>
    <instance_visual_scene url="#Scene"/>
  </scene>
</COLLADA>